<?xml version="1.0" encoding="UTF-8"?>
<svg version="1.1" xmlns="http://www.w3.org/2000/svg" viewBox="0 0 1438 490">
<path d="M0 0 C1.98903281 -0.00378996 3.97806296 -0.00929554 5.96708679 -0.01637268 C11.3349681 -0.03025715 16.70252635 -0.01920648 22.07038951 -0.00266147 C27.70924636 0.01126303 33.34808586 0.00472049 38.98695374 0.00120544 C48.45457112 -0.00149107 57.92206133 0.01193005 67.38964844 0.03515625 C78.30681247 0.06175467 89.22376386 0.06351336 100.14094919 0.05176789 C110.67818202 0.04095583 121.21533858 0.04720453 131.75256538 0.06132317 C136.22070703 0.06705405 140.68879233 0.0670232 145.15693474 0.06225777 C150.42744357 0.05745463 155.69772221 0.06772674 160.96818733 0.08921242 C162.89254098 0.09473556 164.81691696 0.09528721 166.74127197 0.09025955 C181.27677913 0.05707059 195.28931073 0.53201726 208.01977539 8.50170898 C210.01977539 10.50170898 210.01977539 10.50170898 210.51977539 13.81420898 C210.01977539 17.50170898 210.01977539 17.50170898 207.83227539 20.18920898 C202.14883262 24.23550079 194.4005495 26.58015789 187.48461914 26.41967773 C183.27594789 26.36840931 180.82316667 26.63047529 177.01977539 28.50170898 C172.31956708 34.0076673 169.45455123 40.89315088 166.44897461 47.41625977 C164.64121574 51.31896844 162.7051429 55.1491557 160.76074219 58.98510742 C159.48178462 61.51696337 158.22977593 64.06048115 156.98071289 66.60717773 C154.08279699 72.4485626 151.02884237 78.20520808 147.98304749 83.97029114 C143.78327266 91.9284044 139.67190703 99.93032713 135.5765686 107.94256592 C133.40394284 112.19275541 131.22744886 116.44096328 129.05102539 120.68920898 C128.61865067 121.53329315 128.18627594 122.37737732 127.74079895 123.24703979 C123.36109984 131.79358912 118.94976738 140.32353967 114.53271484 148.85083008 C109.84878419 157.89448259 105.18150448 166.946597 100.51977539 176.00170898 C91.44244713 193.6324275 91.44244713 193.6324275 87.23617554 201.75421143 C85.68627197 204.747041 84.14074727 207.74195676 82.60473633 210.74194336 C79.56503526 216.66682343 76.46251119 222.53322737 73.19555664 228.33764648 C59.61639258 252.7792913 51.03315136 279.11346071 42.01977539 305.50170898 C7.34042313 311.00242838 -27.36608831 316.30053995 -62.09653403 321.46827303 C-69.01795716 322.49824469 -75.93901942 323.5306328 -82.86007497 324.56307115 C-95.35758702 326.42731477 -107.85534293 328.28991795 -120.35327148 330.15136719 C-132.13527838 331.90619137 -143.91719798 333.6615992 -155.69897461 335.41796875 C-156.77375064 335.57818725 -156.77375064 335.57818725 -157.87023932 335.74164249 C-165.0977557 336.81906724 -172.32525226 337.89662481 -179.55269852 338.97451983 C-183.1697703 339.51396512 -186.78684907 340.05336346 -190.40393066 340.59274292 C-191.11960958 340.69946775 -191.8352885 340.80619259 -192.57265466 340.91615151 C-202.68680838 342.4243232 -212.80139228 343.9295812 -222.91624373 345.4330657 C-229.41228503 346.39876351 -235.90819495 347.36534405 -242.40405273 348.33227539 C-243.11653691 348.43831924 -243.82902108 348.54436309 -244.56309569 348.65362039 C-264.90267494 351.68135358 -285.23564009 354.75019235 -305.56338306 357.85637764 C-310.62701282 358.62991933 -315.69104303 359.40079335 -320.75535202 360.16987514 C-321.46331849 360.2773974 -322.17128496 360.38491966 -322.90070496 360.49570016 C-325.73421956 360.9259745 -328.56774845 361.35615402 -331.40132985 361.7859882 C-338.81862334 362.91117356 -346.23506167 364.04120526 -353.64893341 365.18877602 C-399.89197376 372.34284017 -446.16249146 376.98538657 -492.83563232 380.1628418 C-495.89643044 380.37275799 -498.95678009 380.58887447 -502.0171442 380.8050127 C-505.72474448 381.06667562 -509.43254002 381.32551137 -513.14038086 381.58374023 C-513.82452623 381.63152933 -514.50867161 381.67931843 -515.21354866 381.72855568 C-517.12272635 381.86129233 -519.03206286 381.99173877 -520.94140625 382.12207031 C-522.01620743 382.19581375 -523.09100861 382.26955719 -524.19837952 382.34553528 C-526.45603889 382.47228102 -528.71901026 382.50170898 -530.98022461 382.50170898 C-530.98022461 383.16170898 -530.98022461 383.82170898 -530.98022461 384.50170898 C-537.29966164 388.18235193 -542.11300252 389.13497478 -549.36572266 389.27490234 C-550.88831538 389.3266307 -550.88831538 389.3266307 -552.44166756 389.37940407 C-555.81230684 389.4890955 -559.18303239 389.5717594 -562.55444336 389.65405273 C-564.96347872 389.72624747 -567.37247006 389.79992467 -569.78141785 389.87498474 C-576.20632118 390.06958506 -582.63163287 390.23944539 -589.05742645 390.40169525 C-592.91611098 390.50007437 -596.77461965 390.6036229 -600.63311768 390.70904541 C-617.00716961 391.15512631 -633.38215398 391.55160055 -649.75798118 391.92537057 C-655.76254621 392.0627265 -661.76695694 392.20615413 -667.77137375 392.3498497 C-728.7507179 393.80575648 -789.70426317 394.67824324 -850.70114607 394.63027877 C-856.11400272 394.62646552 -861.52684124 394.62790774 -866.93969727 394.63208008 C-934.08030494 394.68244288 -934.08030494 394.68244288 -965.98022461 393.50170898 C-967.57435181 393.44500031 -967.57435181 393.44500031 -969.20068359 393.387146 C-974.85925157 393.18135204 -980.51354033 392.9290841 -986.16772461 392.62670898 C-986.9495813 392.58635529 -987.73143799 392.54600159 -988.5369873 392.50442505 C-1027.01091605 390.4914785 -1027.01091605 390.4914785 -1035.98022461 387.50170898 C-1035.98022461 377.93170898 -1035.98022461 368.36170898 -1035.98022461 358.50170898 C-1037.29797746 359.59358881 -1037.29797746 359.59358881 -1037.09375 362.27734375 C-1037.08851318 363.48704834 -1037.08327637 364.69675293 -1037.07788086 365.94311523 C-1037.0746582 367.24829102 -1037.07143555 368.5534668 -1037.06811523 369.89819336 C-1037.05975862 371.28686588 -1037.05129366 372.67553776 -1037.04272461 374.06420898 C-1037.03771127 375.45678554 -1037.03314807 376.8493638 -1037.02905273 378.24194336 C-1037.01721895 381.66190769 -1037.00073341 385.08178742 -1036.98022461 388.50170898 C-1036.32022461 388.50170898 -1035.66022461 388.50170898 -1034.98022461 388.50170898 C-1034.98022461 392.13170898 -1034.98022461 395.76170898 -1034.98022461 399.50170898 C-1046.86022461 398.18170898 -1058.74022461 396.86170898 -1070.98022461 395.50170898 C-1070.86042357 389.43263911 -1070.73781535 383.36376437 -1070.60791016 377.29492188 C-1070.56456658 375.22985222 -1070.52289109 373.16474687 -1070.48291016 371.09960938 C-1070.42519378 368.13327263 -1070.3615031 365.16711553 -1070.29663086 362.20092773 C-1070.27991837 361.27583908 -1070.26320587 360.35075043 -1070.24598694 359.39762878 C-1070.22604172 358.53696304 -1070.2060965 357.6762973 -1070.18554688 356.78955078 C-1070.17000259 356.03232224 -1070.15445831 355.27509369 -1070.13844299 354.49491882 C-1069.98022461 352.50170898 -1069.98022461 352.50170898 -1068.98022461 349.50170898 C-1067.33022461 349.17170898 -1065.68022461 348.84170898 -1063.98022461 348.50170898 C-1065.63022461 348.50170898 -1067.28022461 348.50170898 -1068.98022461 348.50170898 C-1070.00091126 351.56376893 -1070.16406638 353.82068811 -1070.26147461 357.03271484 C-1070.29821289 358.16917953 -1070.33495117 359.30564423 -1070.37280273 360.47654724 C-1070.40825195 361.71074905 -1070.44370117 362.94495087 -1070.48022461 364.21655273 C-1070.54232319 366.17420594 -1070.6044237 368.13185909 -1070.66662598 370.08950901 C-1070.75305705 372.84480936 -1070.8353843 375.60022668 -1070.91772461 378.35565186 C-1071.01978165 381.75791854 -1071.12476345 385.16009321 -1071.23022461 388.56225586 C-1071.26095818 389.55603713 -1071.26095818 389.55603713 -1071.29231262 390.56989479 C-1071.47313283 396.37980879 -1071.66986739 402.1891431 -1071.8684082 407.99847412 C-1071.97155331 411.23003525 -1072.05117773 414.46126079 -1072.12475586 417.69360352 C-1072.17995913 419.48513182 -1072.23588689 421.27663804 -1072.29272461 423.06811523 C-1072.30303711 423.8523436 -1072.31334961 424.63657196 -1072.32397461 425.44456482 C-1072.52915182 430.91782728 -1074.0840211 434.60550548 -1077.98022461 438.50170898 C-1081.29272461 438.87670898 -1081.29272461 438.87670898 -1084.98022461 438.50170898 C-1089.93859208 433.54334152 -1090.13969804 429.64238935 -1090.18554688 422.92114258 C-1090.19544647 422.0332756 -1090.20534607 421.14540863 -1090.21554565 420.2306366 C-1090.24720849 417.28716729 -1090.27193698 414.34368183 -1090.29663086 411.40014648 C-1090.31719626 409.36275811 -1090.33819261 407.32537404 -1090.35960388 405.28799438 C-1090.41486734 399.91877729 -1090.46425775 394.54952141 -1090.51245117 389.18023682 C-1090.56263502 383.70402566 -1090.61833733 378.22787099 -1090.67358398 372.75170898 C-1090.78121782 362.00175721 -1090.88265117 351.25175645 -1090.98022461 340.50170898 C-1090.98022461 341.16170898 -1090.98022461 341.82170898 -1090.98022461 342.50170898 C-1090.98022461 359.50170898 -1090.98022461 376.50170898 -1090.98022461 393.50170898 C-1118.00426872 391.0474886 -1145.00240937 388.42178226 -1171.98022461 385.50170898 C-1171.98022461 387.48170898 -1171.98022461 389.46170898 -1171.98022461 391.50170898 C-1168.68022461 391.50170898 -1165.38022461 391.50170898 -1161.98022461 391.50170898 C-1161.98022461 394.14170898 -1161.98022461 396.78170898 -1161.98022461 399.50170898 C-1165.61022461 399.50170898 -1169.24022461 399.50170898 -1172.98022461 399.50170898 C-1173.07110352 401.37149414 -1173.07110352 401.37149414 -1173.16381836 403.27905273 C-1173.42863556 408.6869831 -1173.70324565 414.09438957 -1173.98022461 419.50170898 C-1174.0229248 420.34894531 -1174.065625 421.19618164 -1174.10961914 422.0690918 C-1174.22859743 424.40106624 -1174.35343971 426.73264756 -1174.48022461 429.06420898 C-1174.51559326 429.7711792 -1174.55096191 430.47814941 -1174.58740234 431.20654297 C-1174.75501059 434.19084991 -1175.02909474 436.64831937 -1175.98022461 439.50170898 C-1174.71178711 439.81108398 -1174.71178711 439.81108398 -1173.41772461 440.12670898 C-1166.32075448 442.96549704 -1162.24361884 447.72389019 -1158.98022461 454.50170898 C-1156.6579664 462.02956614 -1157.27781693 469.60766706 -1160.85913086 476.57202148 C-1164.6162248 483.03893579 -1169.81743807 486.90394139 -1176.99975586 489.12670898 C-1184.70341523 490.58539005 -1192.33952332 489.52228379 -1198.96069336 485.21264648 C-1204.14397847 481.07928053 -1207.67273449 476.10025725 -1208.98022461 469.50170898 C-1209.72484106 461.86023524 -1209.02119662 455.14610834 -1204.98022461 448.50170898 C-1200.49137222 443.33125211 -1194.79858065 438.87562021 -1187.76538086 438.32983398 C-1185.83619224 438.31627203 -1183.90679436 438.40031058 -1181.98022461 438.50170898 C-1184.56656636 433.82814407 -1187.81226868 429.81930492 -1191.16772461 425.68920898 C-1191.7265332 424.99633789 -1192.2853418 424.3034668 -1192.86108398 423.58959961 C-1194.23135891 421.89139565 -1195.60541395 420.19624305 -1196.98022461 418.50170898 C-1195.44928973 413.82971807 -1192.87265066 410.48000894 -1189.85522461 406.68920898 C-1189.15333008 405.79298828 -1189.15333008 405.79298828 -1188.43725586 404.87866211 C-1187.29016896 403.41554107 -1186.13591227 401.95804602 -1184.98022461 400.50170898 C-1187.29022461 400.17170898 -1189.60022461 399.84170898 -1191.98022461 399.50170898 C-1191.98022461 396.86170898 -1191.98022461 394.22170898 -1191.98022461 391.50170898 C-1187.69022461 391.17170898 -1183.40022461 390.84170898 -1178.98022461 390.50170898 C-1178.65022461 388.52170898 -1178.32022461 386.54170898 -1177.98022461 384.50170898 C-1178.97022461 384.50170898 -1179.96022461 384.50170898 -1180.98022461 384.50170898 C-1180.98022461 376.91170898 -1180.98022461 369.32170898 -1180.98022461 361.50170898 C-1183.95022461 360.84170898 -1186.92022461 360.18170898 -1189.98022461 359.50170898 C-1204.35112599 354.60746804 -1218.83958865 348.01516468 -1226.98022461 334.50170898 C-1228.60996564 329.61248588 -1229.06212941 325.02900438 -1226.99194336 320.19311523 C-1205.53855586 285.32380654 -1137.68214241 274.27335819 -1101.46459961 264.66967773 C-1100.63309891 264.44848267 -1099.80159821 264.2272876 -1098.94490051 263.99938965 C-1093.22287269 262.50170898 -1093.22287269 262.50170898 -1090.98022461 262.50170898 C-1090.98022461 279.33170898 -1090.98022461 296.16170898 -1090.98022461 313.50170898 C-1090.95444336 307.21881836 -1090.92866211 300.93592773 -1090.90209961 294.46264648 C-1090.87692961 290.47953288 -1090.85059556 286.49649508 -1090.82006836 282.51342773 C-1090.77173755 276.19294964 -1090.72769134 269.87264706 -1090.70922852 263.55200195 C-1090.69407145 258.45544297 -1090.65964247 253.35934345 -1090.61191559 248.26298904 C-1090.59709205 246.31981019 -1090.58918304 244.37656575 -1090.58834076 242.43333054 C-1090.58597229 239.70871901 -1090.55890261 236.98537847 -1090.52612305 234.26098633 C-1090.53366859 233.05904633 -1090.53366859 233.05904633 -1090.54136658 231.83282471 C-1090.44501397 226.64777833 -1089.48819 223.56632051 -1085.98022461 219.50170898 C-1082.54272461 218.31420898 -1082.54272461 218.31420898 -1078.98022461 218.50170898 C-1075.77939478 221.00670625 -1074.26748881 222.63991638 -1072.98022461 226.50170898 C-1072.83751006 228.17262471 -1072.745174 229.84807546 -1072.68310547 231.52392578 C-1072.6431395 232.54475754 -1072.60317352 233.56558929 -1072.56199646 234.61735535 C-1072.52341019 235.71743423 -1072.48482391 236.81751312 -1072.44506836 237.95092773 C-1072.40209122 239.07868118 -1072.35911407 240.20643463 -1072.31483459 241.36836243 C-1072.17833548 244.97517021 -1072.0479608 248.58217015 -1071.91772461 252.18920898 C-1071.8263306 254.63258346 -1071.73453874 257.07594309 -1071.64233398 259.51928711 C-1071.41701169 265.51326513 -1071.19718234 271.50742261 -1070.98022461 277.50170898 C-1070.98022461 270.90170898 -1070.98022461 264.30170898 -1070.98022461 257.50170898 C-1067.3156105 256.67910635 -1063.64882718 255.86874062 -1059.98022461 255.06420898 C-1058.16699707 254.65996704 -1058.16699707 254.65996704 -1056.31713867 254.24755859 C-1048.00658926 252.42799835 -1039.68205592 250.94266399 -1031.27709961 249.62670898 C-1000.42418054 244.73844097 -1000.42418054 244.73844097 -973.5847168 229.46899414 C-968.97935144 225.99036328 -964.02654775 223.069676 -959.10522461 220.06420898 C-957.13145839 218.83291357 -955.15880964 217.59982512 -953.18725586 216.36499023 C-942.48386253 209.6924089 -931.74518775 203.07445377 -920.98022461 196.50170898 C-920.25568746 195.98181648 -919.5311503 195.46192398 -918.78465748 194.92627716 C-915.30438161 193.15840091 -912.34653336 193.0907559 -908.53581238 193.1373291 C-907.78819411 193.13451982 -907.04057584 193.13171054 -906.27030247 193.12881613 C-903.74264044 193.12329109 -901.21559694 193.13963272 -898.68798828 193.15600586 C-896.84359337 193.15723534 -894.99919735 193.15727431 -893.15480232 193.15623474 C-888.02025455 193.15784278 -882.88596049 193.17976765 -877.75148416 193.20555305 C-873.29002523 193.22576163 -868.82856526 193.23504156 -864.36707348 193.24492216 C-792.75507639 193.41222292 -721.14350731 194.32651356 -649.53596814 195.0837138 C-639.23747663 195.19260788 -628.93897869 195.30087086 -618.6404739 195.40850127 C-616.08348263 195.43526455 -613.52649269 195.46215158 -610.96950293 195.48905849 C-592.46526993 195.68345515 -573.96104942 195.86398767 -555.45635986 196.00915527 C-553.80500888 196.02221827 -552.15365799 196.03529199 -550.50230718 196.04837656 C-540.76142697 196.12545566 -540.76142697 196.12545566 -531.02053118 196.20053196 C-512.49630129 196.3423236 -493.97918578 196.57194702 -475.45823956 196.95623779 C-404.22896604 198.42644575 -335.14564821 192.55789719 -264.63419288 183.58562899 C-254.71036082 182.32399292 -244.78265064 181.09700613 -234.85180664 179.8918457 C-233.78124362 179.7619114 -233.78124362 179.7619114 -232.68905307 179.62935215 C-228.39126373 179.10796316 -224.09335152 178.5875921 -219.79541364 178.06742918 C-213.55681759 177.31212216 -207.31848842 176.55461842 -201.08029175 175.79602051 C-200.07579734 175.67389463 -200.07579734 175.67389463 -199.05101012 175.54930156 C-189.26944749 174.35936441 -179.49060365 173.14853403 -169.71340942 171.92321777 C-168.50837005 171.7724453 -167.30333068 171.62167282 -166.06177497 171.46633148 C-160.43738848 170.76231381 -154.81343604 170.05512129 -149.19018555 169.34208679 C-147.22634233 169.09550163 -145.26248613 168.84901987 -143.2986145 168.60266113 C-142.4188854 168.48982363 -141.53915631 168.37698613 -140.63276875 168.26072931 C-136.72258102 167.77300354 -132.93063695 167.35995583 -128.98022461 167.50170898 C-128.7049292 166.90801514 -128.42963379 166.31432129 -128.14599609 165.70263672 C-127.03552832 163.60612006 -125.89331407 162.05663897 -124.32788086 160.28686523 C-123.80419922 159.68970703 -123.28051758 159.09254883 -122.7409668 158.47729492 C-122.18054687 157.84597656 -121.62012695 157.2146582 -121.04272461 156.56420898 C-119.86112207 155.21709013 -118.68014292 153.86942425 -117.49975586 152.52124023 C-116.90759277 151.84657715 -116.31542969 151.17191406 -115.70532227 150.47680664 C-113.18563753 147.59197087 -110.70242539 144.67726464 -108.23022461 141.75170898 C-107.77905273 141.21803711 -107.32788086 140.68436523 -106.86303711 140.13452148 C-104.05642431 136.80422583 -101.29034659 133.4432414 -98.54272461 130.06420898 C-94.12876231 124.64313943 -89.58239656 119.34328924 -85.02319336 114.04467773 C-80.76670536 109.09612183 -76.55855455 104.10692359 -72.34790039 99.11938477 C-70.95563044 97.4726192 -69.56016988 95.82860831 -68.16381836 94.18530273 C-63.93168828 89.20144651 -59.72285063 84.20611627 -55.60522461 79.12670898 C-51.43866038 74.00437375 -47.1182118 69.02753521 -42.77978516 64.05126953 C-38.86440753 59.54998708 -35.06244706 54.97074579 -31.30834961 50.33374023 C-27.98216632 46.28762801 -24.56461563 42.32191241 -21.14013672 38.35888672 C-18.35024298 35.12507207 -15.62519536 31.8566125 -12.98022461 28.50170898 C-14.11459961 28.1987793 -15.24897461 27.89584961 -16.41772461 27.58374023 C-33.63657316 22.84536043 -33.63657316 22.84536043 -39.98022461 16.50170898 C-40.54272461 13.18920898 -40.54272461 13.18920898 -39.98022461 9.50170898 C-29.55898036 -0.91953526 -13.6286956 -0.07447004 0 0 Z M-800.58712769 204.26034546 C-802.32483454 207.05615435 -802.37213779 208.81409069 -802.40014648 212.09301758 C-802.41605835 213.21453217 -802.43197021 214.33604675 -802.44836426 215.49154663 C-802.44856567 216.69888458 -802.44876709 217.90622253 -802.44897461 219.15014648 C-802.45658813 220.39543121 -802.46420166 221.64071594 -802.4720459 222.92373657 C-802.48285379 225.55845007 -802.4870658 228.19226665 -802.48120117 230.8269043 C-802.47648161 233.52364571 -802.49037639 236.21921544 -802.5222168 238.91577148 C-802.56504814 242.80676091 -802.57410029 246.69644689 -802.57397461 250.58764648 C-802.59036987 251.79093597 -802.60676514 252.99422546 -802.62365723 254.23397827 C-802.68653153 261.22660179 -802.68653153 261.22660179 -799.56811523 267.24633789 C-795.20272227 271.05081904 -791.60371217 270.69251414 -786.02709961 270.73999023 C-785.1341217 270.74806198 -784.2411438 270.75613373 -783.32110596 270.76445007 C-781.42803898 270.77829468 -779.53494699 270.78901515 -777.6418457 270.796875 C-774.75545451 270.81405878 -771.87021739 270.8579374 -768.98413086 270.90209961 C-767.14429553 270.91222918 -765.30445046 270.92074446 -763.46459961 270.92749023 C-762.17522491 270.95375237 -762.17522491 270.95375237 -760.85980225 270.98054504 C-755.27732013 270.96047983 -752.26876167 270.14543931 -747.98022461 266.50170898 C-746.6665412 263.87434217 -746.82414163 261.88038929 -746.78735352 258.93798828 C-746.77129059 257.77305344 -746.75522766 256.60811859 -746.73867798 255.40788269 C-746.69432005 250.07790585 -746.65272369 244.74807722 -746.63012695 239.41796875 C-746.61679137 236.60383571 -746.58894742 233.79042847 -746.5480957 230.9765625 C-746.48929443 226.9262263 -746.47146707 222.8766685 -746.45678711 218.82592773 C-746.43411774 217.56745529 -746.41144836 216.30898285 -746.38809204 215.01237488 C-746.14031775 208.06272312 -746.14031775 208.06272312 -749.32543945 202.23144531 C-753.99735559 199.18743889 -758.23182289 199.32648966 -763.62866211 199.29858398 C-764.47820465 199.29288391 -765.32774719 199.28718384 -766.20303345 199.28131104 C-768.00017046 199.27186794 -769.79732473 199.26532979 -771.59448242 199.26147461 C-774.33795498 199.25177007 -777.08067788 199.22074113 -779.82397461 199.18920898 C-781.571366 199.18267848 -783.31876274 199.17742819 -785.06616211 199.17358398 C-786.29295181 199.15506378 -786.29295181 199.15506378 -787.54452515 199.13616943 C-793.15064622 199.15799824 -796.6561239 199.95815278 -800.58712769 204.26034546 Z M-501.98022461 215.50170898 C-503.78969651 219.14857203 -504.23242099 222.1109218 -504.24092102 226.15649414 C-504.24800583 227.28363831 -504.25509064 228.41078247 -504.26239014 229.57208252 C-504.25991272 230.79924988 -504.2574353 232.02641724 -504.25488281 233.29077148 C-504.25999374 234.59044861 -504.26510468 235.89012573 -504.27037048 237.22918701 C-504.28374063 240.78699313 -504.28434149 244.34469289 -504.28180718 247.90251923 C-504.28073635 250.87476008 -504.28562359 253.84697951 -504.2904126 256.81921577 C-504.30150043 263.83123507 -504.30194896 270.84320079 -504.29589844 277.85522461 C-504.28985522 285.08585124 -504.30218004 292.31628345 -504.32346851 299.54687691 C-504.34108588 305.75933128 -504.34708575 311.97172376 -504.34383076 318.18420219 C-504.34201834 321.89273239 -504.34465015 325.60112381 -504.3585453 329.30963135 C-504.3734576 333.44409818 -504.3641524 337.57816911 -504.35253906 341.71264648 C-504.3601828 342.93981384 -504.36782654 344.1669812 -504.3757019 345.43133545 C-504.36868759 346.55847961 -504.36167328 347.68562378 -504.35444641 348.84692383 C-504.35461415 349.82398285 -504.35478189 350.80104187 -504.35495472 351.80770874 C-503.79858389 355.80755587 -502.01937813 358.44736018 -499.21775818 361.28994751 C-496.11652059 362.96945761 -493.69869327 362.8830057 -490.1796875 362.88989258 C-489.50438492 362.89514954 -488.82908234 362.90040649 -488.13331604 362.90582275 C-485.90626734 362.91900074 -483.67993654 362.91029209 -481.45288086 362.90014648 C-479.90115726 362.9021681 -478.34943459 362.90508028 -476.79771423 362.90884399 C-473.54701687 362.91326454 -470.296567 362.90684603 -467.04589844 362.89282227 C-462.88514238 362.87574457 -458.72496749 362.88556392 -454.56423283 362.90353966 C-451.35997668 362.91439708 -448.15585756 362.91092197 -444.95159721 362.90315628 C-443.41784025 362.90115894 -441.88407074 362.90359718 -440.35032845 362.91059494 C-438.20327091 362.91824037 -436.05714468 362.90656276 -433.91015625 362.88989258 C-432.68978165 362.8875058 -431.46940704 362.88511902 -430.21205139 362.88265991 C-426.66115878 362.46409916 -424.81131581 361.64999334 -421.98022461 359.50170898 C-419.71180683 356.09908231 -419.72274078 354.89286939 -419.69934082 350.89761353 C-419.68792053 349.73114792 -419.67650024 348.56468231 -419.66473389 347.36286926 C-419.66249817 346.08175766 -419.66026245 344.80064606 -419.65795898 343.48071289 C-419.64870112 342.11893679 -419.63865159 340.75716588 -419.62786865 339.395401 C-419.60163265 335.69494969 -419.58873346 331.99457093 -419.57984734 328.29404116 C-419.57398451 325.98217448 -419.5657747 323.67032762 -419.55683899 321.35847092 C-419.52949356 314.12524114 -419.51015753 306.89205667 -419.50243521 299.65877879 C-419.4934714 291.30857944 -419.45836339 282.95903451 -419.40043402 274.60903418 C-419.35720924 268.15458287 -419.33702721 261.70031574 -419.33435297 255.24572122 C-419.33225635 251.39052384 -419.32043272 247.53594178 -419.28471375 243.68089676 C-419.25176492 240.0543265 -419.24743229 236.42883445 -419.26499176 232.80216789 C-419.26726783 230.83856753 -419.23982101 228.87500308 -419.21148682 226.91160583 C-419.13064793 221.00876684 -419.13064793 221.00876684 -421.11343288 215.59659195 C-424.68072507 212.22383985 -428.38883051 211.87862482 -433.09960938 211.88647461 C-434.12763168 211.87815109 -434.12763168 211.87815109 -435.17642212 211.86965942 C-437.42555263 211.85791758 -439.67264355 211.88207593 -441.92163086 211.90795898 C-443.4929139 211.90967148 -445.0641998 211.90960299 -446.63548279 211.90783691 C-449.9214935 211.90948696 -453.20681935 211.92812759 -456.49267578 211.9597168 C-460.6982612 211.99942671 -464.90295194 212.0037564 -469.10868931 211.99625397 C-472.35072482 211.99318048 -475.59256031 212.00531759 -478.83454704 212.02238464 C-480.38503705 212.02939997 -481.93554972 212.03254096 -483.48605537 212.0316925 C-485.65452982 212.03349611 -487.82194401 212.05492266 -489.99023438 212.08178711 C-491.22234146 212.0902063 -492.45444855 212.09862549 -493.72389221 212.1072998 C-497.32818584 212.54385428 -499.17452091 213.21130029 -501.98022461 215.50170898 Z M-955.23022461 222.12670898 C-956.75690256 223.12902591 -958.28428377 224.13027225 -959.81225586 225.13061523 C-960.63677246 225.67089355 -961.46128906 226.21117187 -962.31079102 226.76782227 C-968.11675942 230.53899362 -973.98285379 234.21754319 -979.8425293 237.90454102 C-980.74261719 238.47414551 -981.64270508 239.04375 -982.57006836 239.63061523 C-983.37307373 240.13665283 -984.1760791 240.64269043 -985.00341797 241.1640625 C-987.08935174 242.48460165 -987.08935174 242.48460165 -988.98022461 244.50170898 C-987.75515563 245.15528177 -986.52492945 245.79919131 -985.29272461 246.43920898 C-984.60823242 246.79885742 -983.92374023 247.15850586 -983.21850586 247.52905273 C-980.7017752 248.62271056 -978.72804096 249.30634646 -975.98022461 249.50170898 C-973.56044326 248.37110561 -973.56044326 248.37110561 -971.23022461 246.43920898 C-970.28791992 245.7134668 -969.34561523 244.98772461 -968.37475586 244.23999023 C-967.24073549 243.33035008 -966.10950165 242.41723111 -964.98022461 241.50170898 C-964.27559082 240.93242676 -963.57095703 240.36314453 -962.8449707 239.77661133 C-954.15925613 232.92513457 -954.15925613 232.92513457 -945.98022461 225.50170898 C-945.73809588 223.5204239 -945.73809588 223.5204239 -945.85522461 221.37670898 C-945.89647461 220.09795898 -945.93772461 218.81920898 -945.98022461 217.50170898 C-949.52649584 217.50170898 -952.34510228 220.21172341 -955.23022461 222.12670898 Z M-935.9777832 223.36035156 C-936.51483887 223.90199951 -937.05189453 224.44364746 -937.60522461 225.00170898 C-938.15645996 225.55560303 -938.70769531 226.10949707 -939.27563477 226.68017578 C-942.62490799 230.06841698 -945.84532233 233.51598366 -948.90991211 237.16577148 C-950.73729949 239.22761612 -952.61802267 241.18785525 -954.55053711 243.15014648 C-955.19458496 243.81296631 -955.83863281 244.47578613 -956.50219727 245.15869141 C-957.80503992 246.49610715 -959.1196353 247.82218905 -960.4465332 249.13574219 C-961.04546387 249.75537842 -961.64439453 250.37501465 -962.26147461 251.01342773 C-963.08228516 251.84040161 -963.08228516 251.84040161 -963.91967773 252.68408203 C-965.25248224 254.5476768 -965.25248224 254.5476768 -964.65014648 257.21972656 C-964.42907227 257.97278076 -964.20799805 258.72583496 -963.98022461 259.50170898 C-959.17475782 259.57576193 -954.36962171 259.63026395 -949.5637207 259.66650391 C-947.9282452 259.6816081 -946.29281032 259.70209287 -944.6574707 259.72802734 C-942.30922437 259.76434043 -939.96151256 259.78141831 -937.61303711 259.79467773 C-936.51295822 259.81790352 -936.51295822 259.81790352 -935.39065552 259.84159851 C-933.1094154 259.87725535 -933.1094154 259.87725535 -929.98022461 259.50170898 C-927.54650659 255.85113195 -927.67408938 253.09931481 -927.67944336 248.87670898 C-927.67301567 247.76175049 -927.67301567 247.76175049 -927.66645813 246.62426758 C-927.6607201 245.05412819 -927.6602107 243.48396223 -927.66455078 241.91381836 C-927.66771322 239.5103635 -927.64423844 237.10813688 -927.61889648 234.70483398 C-927.61662368 233.17879387 -927.61591991 231.65275045 -927.61694336 230.12670898 C-927.60773361 229.40789551 -927.59852386 228.68908203 -927.58903503 227.94848633 C-927.6189679 223.96548909 -927.6189679 223.96548909 -929.44042969 220.52514648 C-932.62080938 218.41128067 -933.60159544 220.99369906 -935.9777832 223.36035156 Z M-918.98022461 219.50170898 C-918.98022461 232.70170898 -918.98022461 245.90170898 -918.98022461 259.50170898 C-913.70022461 259.56358398 -908.42022461 259.62545898 -902.98022461 259.68920898 C-900.50522461 259.730177 -900.50522461 259.730177 -897.98022461 259.77197266 C-889.21419978 259.85734052 -881.95559475 259.66139706 -874.66772461 254.18920898 C-870.03116292 249.55264729 -868.79097057 245.98012774 -868.54272461 239.50170898 C-868.72610293 233.31269071 -870.23557147 230.31429908 -874.55834961 225.88452148 C-880.50376664 220.2872595 -886.56480362 219.24134416 -894.66381836 219.30639648 C-895.94571045 219.3113916 -897.22760254 219.31638672 -898.54833984 219.3215332 C-900.9586853 219.34884521 -900.9586853 219.34884521 -903.41772461 219.37670898 C-908.55334961 219.41795898 -913.68897461 219.45920898 -918.98022461 219.50170898 Z M-734.98022461 234.50170898 C-737.91219841 238.89966969 -739.47546505 243.32051743 -738.64819336 248.63452148 C-736.96988467 255.02292229 -733.50159567 258.94090155 -727.98022461 262.50170898 C-723.21577448 264.06860272 -718.66535868 264.08634734 -713.91772461 262.43920898 C-708.71843539 259.00989056 -705.13153602 255.15191945 -703.41772461 249.06420898 C-702.39114784 242.97733459 -704.55261549 238.71696451 -707.79272461 233.68920898 C-711.69333898 229.78859461 -715.3428564 228.31098294 -720.79272461 227.93920898 C-726.68781095 228.12621323 -730.71160546 230.54894961 -734.98022461 234.50170898 Z M-681.41772461 236.25170898 C-684.08811138 241.80611347 -684.63243042 246.32768962 -682.85522461 252.25170898 C-679.66290042 257.78507091 -675.97966188 261.22192282 -669.98022461 263.50170898 C-664.07296493 264.26746487 -659.79770464 262.81435773 -654.98022461 259.50170898 C-650.82871359 255.48345634 -648.81404867 252.14346563 -648.60522461 246.37670898 C-648.68132346 240.57036682 -649.90925319 236.70113338 -653.98022461 232.50170898 C-658.43957783 229.0796401 -663.1475309 227.7722865 -668.74194336 228.05249023 C-674.14996213 229.13786922 -677.83398654 232.20851732 -681.41772461 236.25170898 Z M-628.04272461 237.18920898 C-629.77162637 243.29799522 -630.14407163 249.08448826 -627.35522461 254.87670898 C-622.49908912 260.24401663 -618.93388271 263.20884542 -611.60522461 263.75170898 C-606.34785031 263.38913145 -603.33306974 261.602862 -599.29272461 258.31420898 C-595.63609825 253.86696071 -593.6078457 249.34350029 -593.91772461 243.50170898 C-595.01371874 237.4618283 -598.88170764 233.02790314 -603.73022461 229.50170898 C-613.72047505 226.42778577 -621.61441306 228.81292424 -628.04272461 237.18920898 Z M-572.29272461 234.93920898 C-575.52344374 239.84511582 -576.58219416 243.58234171 -575.98022461 249.50170898 C-574.00989746 255.69585121 -570.66703367 259.42740154 -564.98022461 262.50170898 C-559.92598563 264.18645531 -555.69566929 264.08190212 -550.85522461 261.87670898 C-546.00606099 259.23085466 -542.75526391 255.8268269 -540.98022461 250.50170898 C-540.41665781 244.81185188 -540.65226027 240.33262495 -543.98022461 235.50170898 C-548.34689307 231.10407124 -551.85700824 228.40090673 -558.23022461 228.18920898 C-564.35817017 228.2689221 -568.04706534 230.46405462 -572.29272461 234.93920898 Z M-771.98022461 290.50170898 C-771.98022461 290.83170898 -771.98022461 291.16170898 -771.98022461 291.50170898 C-767.36022461 291.50170898 -762.74022461 291.50170898 -757.98022461 291.50170898 C-757.98022461 291.17170898 -757.98022461 290.84170898 -757.98022461 290.50170898 C-762.60022461 290.50170898 -767.22022461 290.50170898 -771.98022461 290.50170898 Z M-757.98022461 291.50170898 C-757.98022461 291.83170898 -757.98022461 292.16170898 -757.98022461 292.50170898 C-751.38022461 292.50170898 -744.78022461 292.50170898 -737.98022461 292.50170898 C-737.98022461 292.17170898 -737.98022461 291.84170898 -737.98022461 291.50170898 C-744.58022461 291.50170898 -751.18022461 291.50170898 -757.98022461 291.50170898 Z M-736.98022461 292.50170898 C-736.98022461 292.83170898 -736.98022461 293.16170898 -736.98022461 293.50170898 C-730.71022461 293.50170898 -724.44022461 293.50170898 -717.98022461 293.50170898 C-717.98022461 293.17170898 -717.98022461 292.84170898 -717.98022461 292.50170898 C-724.25022461 292.50170898 -730.52022461 292.50170898 -736.98022461 292.50170898 Z M-716.98022461 293.50170898 C-716.98022461 293.83170898 -716.98022461 294.16170898 -716.98022461 294.50170898 C-711.04022461 294.50170898 -705.10022461 294.50170898 -698.98022461 294.50170898 C-698.98022461 294.17170898 -698.98022461 293.84170898 -698.98022461 293.50170898 C-704.92022461 293.50170898 -710.86022461 293.50170898 -716.98022461 293.50170898 Z M-774.98022461 294.50170898 C-773.98022461 296.50170898 -773.98022461 296.50170898 -773.98022461 296.50170898 Z M-695.98022461 294.50170898 C-695.98022461 294.83170898 -695.98022461 295.16170898 -695.98022461 295.50170898 C-691.69022461 295.50170898 -687.40022461 295.50170898 -682.98022461 295.50170898 C-682.98022461 295.17170898 -682.98022461 294.84170898 -682.98022461 294.50170898 C-687.27022461 294.50170898 -691.56022461 294.50170898 -695.98022461 294.50170898 Z M-1031.98022461 297.50170898 C-1031.98022461 297.83170898 -1031.98022461 298.16170898 -1031.98022461 298.50170898 C-1030.69334747 298.49726776 -1029.40647034 298.49282654 -1028.08059692 298.48825073 C-1011.75550152 298.43372426 -995.43039657 298.39815698 -979.10522461 298.37670898 C-977.80935677 298.37499695 -976.51348892 298.37328491 -975.17835236 298.371521 C-939.80661105 298.33022018 -904.52605344 298.51939931 -869.19058228 300.1946106 C-858.79045557 300.65602475 -848.3880324 300.59660912 -837.98022461 300.50170898 C-837.98022461 300.17170898 -837.98022461 299.84170898 -837.98022461 299.50170898 C-881.94403946 297.3135444 -925.83462643 296.20450061 -969.85522461 296.25170898 C-972.06254068 296.25278349 -974.26985676 296.25384155 -976.47717285 296.25488281 C-981.75620588 296.25886279 -987.03517153 296.27037346 -992.31417465 296.28850555 C-994.25746167 296.29509829 -996.20075302 296.30054151 -998.14404678 296.30469513 C-1009.46327408 296.33384979 -1020.69104135 296.64004931 -1031.98022461 297.50170898 Z M-1041.98022461 298.50170898 C-1041.98022461 298.83170898 -1041.98022461 299.16170898 -1041.98022461 299.50170898 C-1039.01022461 299.50170898 -1036.04022461 299.50170898 -1032.98022461 299.50170898 C-1032.98022461 299.17170898 -1032.98022461 298.84170898 -1032.98022461 298.50170898 C-1035.95022461 298.50170898 -1038.92022461 298.50170898 -1041.98022461 298.50170898 Z M-1049.98022461 299.50170898 C-1049.98022461 299.83170898 -1049.98022461 300.16170898 -1049.98022461 300.50170898 C-1047.67022461 300.50170898 -1045.36022461 300.50170898 -1042.98022461 300.50170898 C-1042.98022461 300.17170898 -1042.98022461 299.84170898 -1042.98022461 299.50170898 C-1045.29022461 299.50170898 -1047.60022461 299.50170898 -1049.98022461 299.50170898 Z M-777.98022461 299.50170898 C-776.98022461 301.50170898 -776.98022461 301.50170898 -776.98022461 301.50170898 Z M-1054.98022461 300.50170898 C-1050.98022461 301.50170898 -1050.98022461 301.50170898 -1050.98022461 301.50170898 Z M-837.98022461 300.50170898 C-837.98022461 300.83170898 -837.98022461 301.16170898 -837.98022461 301.50170898 C-837.38633438 301.5370726 -836.79244415 301.57243622 -836.18055725 301.60887146 C-829.96672106 301.97933231 -823.75308431 302.35301332 -817.53955078 302.72851562 C-815.22449567 302.86800404 -812.9093919 303.00668741 -810.59423828 303.14453125 C-807.25531934 303.34347308 -803.91658947 303.54536528 -800.57788086 303.74780273 C-799.03983543 303.83849281 -799.03983543 303.83849281 -797.47071838 303.93101501 C-791.61317549 304.28943747 -785.80719226 304.80268389 -779.98022461 305.50170898 C-779.98022461 304.51170898 -779.98022461 303.52170898 -779.98022461 302.50170898 C-780.53258789 302.47665283 -781.08495117 302.45159668 -781.65405273 302.42578125 C-784.26284199 302.30663501 -786.87154127 302.18565232 -789.48022461 302.06420898 C-790.44057617 302.01981689 -791.40092773 301.9754248 -792.39038086 301.9296875 C-797.92743636 301.66748838 -803.45158075 301.33900761 -808.98022461 300.93920898 C-818.6400819 300.30054073 -828.30389777 300.40997018 -837.98022461 300.50170898 Z M-1067.98022461 304.50170898 C-1063.98022461 305.50170898 -1063.98022461 305.50170898 -1063.98022461 305.50170898 Z M-782.98022461 307.50170898 C-781.98022461 309.50170898 -781.98022461 309.50170898 -781.98022461 309.50170898 Z M-785.98022461 312.50170898 C-784.98022461 314.50170898 -784.98022461 314.50170898 -784.98022461 314.50170898 Z M-1070.98022461 315.50170898 C-1069.98022461 317.50170898 -1069.98022461 317.50170898 -1069.98022461 317.50170898 Z M-788.98022461 317.50170898 C-787.98022461 319.50170898 -787.98022461 319.50170898 -787.98022461 319.50170898 Z M-790.98022461 320.50170898 C-789.98022461 322.50170898 -789.98022461 322.50170898 -789.98022461 322.50170898 Z M-1105.98022461 322.50170898 C-1104.98022461 324.50170898 -1104.98022461 324.50170898 -1104.98022461 324.50170898 Z M-1087.98022461 322.50170898 C-1087.98022461 322.83170898 -1087.98022461 323.16170898 -1087.98022461 323.50170898 C-1086.33022461 323.50170898 -1084.68022461 323.50170898 -1082.98022461 323.50170898 C-1082.98022461 323.17170898 -1082.98022461 322.84170898 -1082.98022461 322.50170898 C-1084.63022461 322.50170898 -1086.28022461 322.50170898 -1087.98022461 322.50170898 Z M-1106.98022461 325.50170898 C-1105.98022461 328.50170898 -1105.98022461 328.50170898 -1105.98022461 328.50170898 Z M-793.98022461 325.50170898 C-792.98022461 327.50170898 -792.98022461 327.50170898 -792.98022461 327.50170898 Z M-1105.98022461 329.50170898 C-1104.98022461 331.50170898 -1104.98022461 331.50170898 -1104.98022461 331.50170898 Z M-796.98022461 330.50170898 C-795.98022461 332.50170898 -795.98022461 332.50170898 -795.98022461 332.50170898 Z M-798.98022461 333.50170898 C-797.98022461 335.50170898 -797.98022461 335.50170898 -797.98022461 335.50170898 Z M-1084.98022461 334.50170898 C-1084.98022461 334.83170898 -1084.98022461 335.16170898 -1084.98022461 335.50170898 C-1083.33022461 335.50170898 -1081.68022461 335.50170898 -1079.98022461 335.50170898 C-1079.98022461 335.17170898 -1079.98022461 334.84170898 -1079.98022461 334.50170898 C-1081.63022461 334.50170898 -1083.28022461 334.50170898 -1084.98022461 334.50170898 Z M-608.98022461 335.50170898 C-606.06762562 337.74009525 -603.09117283 339.79788175 -599.98022461 341.75170898 C-599.13459961 342.29311523 -598.28897461 342.83452148 -597.41772461 343.39233398 C-594.6054644 344.67227293 -593.82449852 344.37814222 -590.98022461 343.50170898 C-593.41378131 342.16070849 -595.85157762 340.82876042 -598.29272461 339.50170898 C-598.98301758 339.12014648 -599.67331055 338.73858398 -600.38452148 338.34545898 C-604.44699966 336.10171206 -604.44699966 336.10171206 -608.98022461 335.50170898 Z M-806.98022461 339.50170898 C-802.98022461 340.50170898 -802.98022461 340.50170898 -802.98022461 340.50170898 Z M-812.98022461 340.50170898 C-812.98022461 340.83170898 -812.98022461 341.16170898 -812.98022461 341.50170898 C-811.00022461 341.50170898 -809.02022461 341.50170898 -806.98022461 341.50170898 C-806.98022461 341.17170898 -806.98022461 340.84170898 -806.98022461 340.50170898 C-808.96022461 340.50170898 -810.94022461 340.50170898 -812.98022461 340.50170898 Z M-832.98022461 342.50170898 C-832.32022461 343.16170898 -831.66022461 343.82170898 -830.98022461 344.50170898 C-828.05031442 344.32041714 -825.25330348 344.03601558 -822.35522461 343.62670898 C-821.1525293 343.47008789 -821.1525293 343.47008789 -819.92553711 343.31030273 C-817.94245264 343.0506131 -815.96114433 342.77742586 -813.98022461 342.50170898 C-813.98022461 342.17170898 -813.98022461 341.84170898 -813.98022461 341.50170898 C-816.02181556 341.47444738 -818.06351424 341.45519553 -820.10522461 341.43920898 C-821.8106543 341.42180664 -821.8106543 341.42180664 -823.55053711 341.40405273 C-826.79314021 341.49638198 -829.79955073 341.88780992 -832.98022461 342.50170898 Z M-598.98022461 344.50170898 C-594.98022461 345.50170898 -594.98022461 345.50170898 -594.98022461 345.50170898 Z M-602.98022461 345.50170898 C-598.98022461 346.50170898 -598.98022461 346.50170898 -598.98022461 346.50170898 Z M-606.98022461 346.50170898 C-602.98022461 347.50170898 -602.98022461 347.50170898 -602.98022461 347.50170898 Z M-611.98022461 347.50170898 C-611.98022461 347.83170898 -611.98022461 348.16170898 -611.98022461 348.50170898 C-610.33022461 348.50170898 -608.68022461 348.50170898 -606.98022461 348.50170898 C-606.98022461 348.17170898 -606.98022461 347.84170898 -606.98022461 347.50170898 C-608.63022461 347.50170898 -610.28022461 347.50170898 -611.98022461 347.50170898 Z M-615.98022461 348.50170898 C-611.98022461 349.50170898 -611.98022461 349.50170898 -611.98022461 349.50170898 Z M-620.98022461 349.50170898 C-620.98022461 349.83170898 -620.98022461 350.16170898 -620.98022461 350.50170898 C-619.33022461 350.50170898 -617.68022461 350.50170898 -615.98022461 350.50170898 C-615.98022461 350.17170898 -615.98022461 349.84170898 -615.98022461 349.50170898 C-617.63022461 349.50170898 -619.28022461 349.50170898 -620.98022461 349.50170898 Z M-624.98022461 350.50170898 C-620.98022461 351.50170898 -620.98022461 351.50170898 -620.98022461 351.50170898 Z M-629.98022461 351.50170898 C-625.98022461 352.50170898 -625.98022461 352.50170898 -625.98022461 352.50170898 Z M-640.98022461 353.50170898 C-640.98022461 353.83170898 -640.98022461 354.16170898 -640.98022461 354.50170898 C-635.53522461 354.00670898 -635.53522461 354.00670898 -629.98022461 353.50170898 C-629.98022461 353.17170898 -629.98022461 352.84170898 -629.98022461 352.50170898 C-633.81247888 352.41258679 -637.24584613 352.62303169 -640.98022461 353.50170898 Z M-645.98022461 354.50170898 C-645.98022461 354.83170898 -645.98022461 355.16170898 -645.98022461 355.50170898 C-644.33022461 355.50170898 -642.68022461 355.50170898 -640.98022461 355.50170898 C-640.98022461 355.17170898 -640.98022461 354.84170898 -640.98022461 354.50170898 C-642.63022461 354.50170898 -644.28022461 354.50170898 -645.98022461 354.50170898 Z M-579.98022461 354.50170898 C-578.98022461 356.50170898 -578.98022461 356.50170898 -578.98022461 356.50170898 Z M-651.98022461 355.50170898 C-651.98022461 355.83170898 -651.98022461 356.16170898 -651.98022461 356.50170898 C-650.00022461 356.50170898 -648.02022461 356.50170898 -645.98022461 356.50170898 C-645.98022461 356.17170898 -645.98022461 355.84170898 -645.98022461 355.50170898 C-647.96022461 355.50170898 -649.94022461 355.50170898 -651.98022461 355.50170898 Z M-1053.98022461 356.50170898 C-1049.98022461 357.50170898 -1049.98022461 357.50170898 -1049.98022461 357.50170898 Z M-657.98022461 356.50170898 C-657.98022461 356.83170898 -657.98022461 357.16170898 -657.98022461 357.50170898 C-656.00022461 357.50170898 -654.02022461 357.50170898 -651.98022461 357.50170898 C-651.98022461 357.17170898 -651.98022461 356.84170898 -651.98022461 356.50170898 C-653.96022461 356.50170898 -655.94022461 356.50170898 -657.98022461 356.50170898 Z M-578.98022461 356.50170898 C-577.98022461 358.50170898 -577.98022461 358.50170898 -577.98022461 358.50170898 Z M-1049.98022461 357.50170898 C-1049.98022461 357.83170898 -1049.98022461 358.16170898 -1049.98022461 358.50170898 C-1047.67022461 358.50170898 -1045.36022461 358.50170898 -1042.98022461 358.50170898 C-1042.98022461 358.17170898 -1042.98022461 357.84170898 -1042.98022461 357.50170898 C-1045.29022461 357.50170898 -1047.60022461 357.50170898 -1049.98022461 357.50170898 Z M-663.98022461 357.50170898 C-663.98022461 357.83170898 -663.98022461 358.16170898 -663.98022461 358.50170898 C-662.00022461 358.50170898 -660.02022461 358.50170898 -657.98022461 358.50170898 C-657.98022461 358.17170898 -657.98022461 357.84170898 -657.98022461 357.50170898 C-659.96022461 357.50170898 -661.94022461 357.50170898 -663.98022461 357.50170898 Z M-799.98022461 359.50170898 C-795.98022461 360.50170898 -795.98022461 360.50170898 -795.98022461 360.50170898 Z M-577.98022461 359.50170898 C-577.98022461 362.47170898 -577.98022461 365.44170898 -577.98022461 368.50170898 C-577.65022461 368.50170898 -577.32022461 368.50170898 -576.98022461 368.50170898 C-576.98022461 365.53170898 -576.98022461 362.56170898 -576.98022461 359.50170898 C-577.31022461 359.50170898 -577.64022461 359.50170898 -577.98022461 359.50170898 Z M-795.98022461 360.50170898 C-795.98022461 360.83170898 -795.98022461 361.16170898 -795.98022461 361.50170898 C-794.33022461 361.50170898 -792.68022461 361.50170898 -790.98022461 361.50170898 C-790.98022461 361.17170898 -790.98022461 360.84170898 -790.98022461 360.50170898 C-792.63022461 360.50170898 -794.28022461 360.50170898 -795.98022461 360.50170898 Z M-790.98022461 361.50170898 C-790.98022461 361.83170898 -790.98022461 362.16170898 -790.98022461 362.50170898 C-789.33022461 362.50170898 -787.68022461 362.50170898 -785.98022461 362.50170898 C-785.98022461 362.17170898 -785.98022461 361.84170898 -785.98022461 361.50170898 C-787.63022461 361.50170898 -789.28022461 361.50170898 -790.98022461 361.50170898 Z M-785.98022461 362.50170898 C-785.98022461 362.83170898 -785.98022461 363.16170898 -785.98022461 363.50170898 C-783.67022461 363.50170898 -781.36022461 363.50170898 -778.98022461 363.50170898 C-778.98022461 363.17170898 -778.98022461 362.84170898 -778.98022461 362.50170898 C-781.29022461 362.50170898 -783.60022461 362.50170898 -785.98022461 362.50170898 Z M-678.42553711 359.34155273 C-679.1172702 359.42796524 -679.8090033 359.51437775 -680.521698 359.60340881 C-682.7167407 359.87795512 -684.91102226 360.1580314 -687.10522461 360.43920898 C-689.2780476 360.71640941 -691.45101312 360.99219856 -693.6244812 361.26429749 C-695.61212451 361.51328025 -697.59917544 361.766979 -699.58618164 362.02099609 C-710.33657369 363.25665043 -720.9959046 363.64267238 -731.81225586 363.59936523 C-733.18373055 363.59749387 -734.55520592 363.59607337 -735.92668152 363.59507751 C-739.48904353 363.59130883 -743.05136299 363.58152879 -746.6137085 363.57037354 C-750.26777573 363.56003599 -753.92185001 363.5555538 -757.57592773 363.55053711 C-764.71071048 363.5398998 -771.84546473 363.52289378 -778.98022461 363.50170898 C-778.98022461 363.83170898 -778.98022461 364.16170898 -778.98022461 364.50170898 C-740.59110057 368.30321297 -701.99403127 366.04253159 -663.98022461 359.50170898 C-663.98022461 359.17170898 -663.98022461 358.84170898 -663.98022461 358.50170898 C-668.88117941 358.41693784 -673.56501218 358.72119871 -678.42553711 359.34155273 Z M-578.98022461 368.50170898 C-578.98022461 369.49170898 -578.98022461 370.48170898 -578.98022461 371.50170898 C-577.99022461 371.17170898 -577.00022461 370.84170898 -575.98022461 370.50170898 C-576.64022461 370.50170898 -577.30022461 370.50170898 -577.98022461 370.50170898 C-578.31022461 369.84170898 -578.64022461 369.18170898 -578.98022461 368.50170898 Z M-570.98022461 372.50170898 C-566.98022461 373.50170898 -566.98022461 373.50170898 -566.98022461 373.50170898 Z M-566.98022461 373.50170898 C-562.98022461 374.50170898 -562.98022461 374.50170898 -562.98022461 374.50170898 Z M-562.98022461 374.50170898 C-558.98022461 375.50170898 -558.98022461 375.50170898 -558.98022461 375.50170898 Z M-558.98022461 375.50170898 C-554.98022461 376.50170898 -554.98022461 376.50170898 -554.98022461 376.50170898 Z M-554.98022461 376.50170898 C-550.98022461 377.50170898 -550.98022461 377.50170898 -550.98022461 377.50170898 Z M-550.98022461 377.50170898 C-546.98022461 378.50170898 -546.98022461 378.50170898 -546.98022461 378.50170898 Z M-546.98022461 378.50170898 C-542.98022461 379.50170898 -542.98022461 379.50170898 -542.98022461 379.50170898 Z M-542.98022461 379.50170898 C-538.98022461 380.50170898 -538.98022461 380.50170898 -538.98022461 380.50170898 Z M-538.98022461 380.50170898 C-534.98022461 381.50170898 -534.98022461 381.50170898 -534.98022461 381.50170898 Z M-534.98022461 381.50170898 C-530.98022461 382.50170898 -530.98022461 382.50170898 -530.98022461 382.50170898 Z M-1180.98022461 404.50170898 C-1182.53853581 406.48126499 -1184.05091462 408.47303017 -1185.54272461 410.50170898 C-1185.9674707 411.07405273 -1186.3922168 411.64639648 -1186.82983398 412.23608398 C-1187.88282238 413.65584362 -1188.93188726 415.07851161 -1189.98022461 416.50170898 C-1188.5744534 419.51698636 -1186.91896313 422.09650308 -1184.91772461 424.75170898 C-1184.12688477 425.81131836 -1184.12688477 425.81131836 -1183.32006836 426.89233398 C-1182.6568457 427.68897461 -1182.6568457 427.68897461 -1181.98022461 428.50170898 C-1181.65022461 428.50170898 -1181.32022461 428.50170898 -1180.98022461 428.50170898 C-1180.0798115 420.47838502 -1179.86475138 412.57200451 -1179.98022461 404.50170898 C-1180.31022461 404.50170898 -1180.64022461 404.50170898 -1180.98022461 404.50170898 Z M-1199.41772461 450.81420898 C-1202.97800498 455.47224246 -1204.23355529 460.03997004 -1203.98022461 465.87670898 C-1203.16974927 471.32645697 -1200.70275396 475.48973891 -1196.98022461 479.50170898 C-1192.83666978 482.49198811 -1188.10310206 484.39925144 -1182.98022461 484.50170898 C-1176.62361803 483.34129454 -1172.09169894 481.70151475 -1167.98022461 476.50170898 C-1166.86647461 475.14045898 -1166.86647461 475.14045898 -1165.73022461 473.75170898 C-1163.1924056 469.03861653 -1162.3316719 464.65264207 -1163.42163086 459.35717773 C-1165.02931464 454.55249992 -1167.36344988 451.03437267 -1170.98022461 447.50170898 C-1174.13523626 446.08580527 -1174.13523626 446.08580527 -1176.98022461 445.50170898 C-1176.9245881 447.3363973 -1176.9245881 447.3363973 -1175.98022461 449.50170898 C-1174.52616211 450.70827148 -1174.52616211 450.70827148 -1173.04272461 451.93920898 C-1169.34293218 455.03495367 -1168.2502484 456.85547582 -1167.76538086 461.60717773 C-1167.55384471 466.65866102 -1168.08158018 470.20371896 -1170.98022461 474.50170898 C-1175.71907154 478.8851424 -1179.42700422 479.80818867 -1185.69897461 479.71655273 C-1190.37891294 479.27580512 -1193.16303775 477.38515424 -1196.29272461 474.00170898 C-1199.57797309 469.1346742 -1199.52601451 464.19611692 -1198.98022461 458.50170898 C-1197.48022461 455.50170898 -1197.48022461 455.50170898 -1195.98022461 453.50170898 C-1195.98022461 452.84170898 -1195.98022461 452.18170898 -1195.98022461 451.50170898 C-1191.72967801 449.64209485 -1187.48088936 448.56966333 -1182.98022461 447.50170898 C-1182.65022461 446.18170898 -1182.32022461 444.86170898 -1181.98022461 443.50170898 C-1188.64038936 442.64233289 -1195.0022565 446.00914074 -1199.41772461 450.81420898 Z M-1183.98022461 452.50170898 C-1190.12136764 454.61622221 -1190.12136764 454.61622221 -1193.98022461 459.50170898 C-1194.68136853 464.63806224 -1194.68136853 464.63806224 -1192.92553711 469.31811523 C-1190.03381208 472.86860603 -1188.259705 474.35407663 -1183.73022461 474.87670898 C-1178.78749503 474.38243603 -1177.4419416 472.96342598 -1173.98022461 469.50170898 C-1172.44807573 466.43741122 -1172.75083913 463.88514479 -1172.98022461 460.50170898 C-1174.35019618 457.63023905 -1174.35019618 457.63023905 -1175.98022461 455.50170898 C-1176.97022461 455.99670898 -1176.97022461 455.99670898 -1177.98022461 456.50170898 C-1177.88483398 457.1887793 -1177.78944336 457.87584961 -1177.69116211 458.58374023 C-1177.58030273 459.48479492 -1177.46944336 460.38584961 -1177.35522461 461.31420898 C-1177.18120117 462.65418945 -1177.18120117 462.65418945 -1177.00366211 464.02124023 C-1176.98022461 466.50170898 -1176.98022461 466.50170898 -1178.98022461 469.50170898 C-1182.35522461 470.43920898 -1182.35522461 470.43920898 -1185.98022461 470.50170898 C-1188.48022461 469.00170898 -1188.48022461 469.00170898 -1189.98022461 466.50170898 C-1189.7659389 460.28742327 -1189.7659389 460.28742327 -1186.98022461 457.50170898 C-1184.85522461 456.87670898 -1184.85522461 456.87670898 -1182.98022461 456.50170898 C-1183.31022461 455.18170898 -1183.64022461 453.86170898 -1183.98022461 452.50170898 Z " fill="currentColor" transform="translate(1227.980224609375,-0.501708984375)"/>
<path d="M0 0 C0.68812271 -0.00511093 1.37624542 -0.01022186 2.08522034 -0.01548767 C4.35963641 -0.02938705 6.63374963 -0.0284269 8.90820312 -0.02612305 C10.48856723 -0.03000939 12.06893029 -0.03434394 13.64929199 -0.03910828 C16.96137885 -0.04657092 20.27335912 -0.04627862 23.58544922 -0.04101562 C27.83271667 -0.03521654 32.07954866 -0.05216204 36.32674408 -0.0753603 C39.59009355 -0.09008057 42.85333769 -0.09097176 46.11671448 -0.08785057 C47.68283451 -0.0883645 49.24896033 -0.09361572 50.81504822 -0.10366249 C53.00329034 -0.11597894 55.19067814 -0.10926535 57.37890625 -0.09765625 C58.62450317 -0.09828568 59.8701001 -0.0989151 61.15344238 -0.0995636 C64.18945312 0.2746582 64.18945312 0.2746582 65.85497379 1.4493227 C67.70731182 3.98299878 67.56962364 5.72978394 67.57713318 8.85424805 C67.58703781 10.01518982 67.59694244 11.17613159 67.60714722 12.37225342 C67.60264557 13.64715637 67.59814392 14.92205933 67.59350586 16.2355957 C67.59920759 17.59076501 67.60617108 18.94592952 67.61430359 20.30108643 C67.63227105 23.98288002 67.63106012 27.66443577 67.6253612 31.34626007 C67.62227488 34.41801108 67.6283555 37.48971603 67.63439995 40.56146049 C67.64845499 47.80639336 67.64687546 55.05120832 67.63549805 62.29614258 C67.62401202 69.77562691 67.63809817 77.25475288 67.66489452 84.73418999 C67.68702865 91.15210437 67.69369421 97.56990606 67.68781811 103.98785591 C67.68444225 107.82270004 67.68690505 111.65731435 67.70406914 115.49212646 C67.71950037 119.09720756 67.71562615 122.70175633 67.69676399 126.3068161 C67.69130209 128.26357338 67.70562068 130.22035435 67.72045898 132.17706299 C67.70570778 133.91847565 67.70570778 133.91847565 67.69065857 135.69506836 C67.69034464 137.21156479 67.69034464 137.21156479 67.69002438 138.75869751 C67.18945312 141.2746582 67.18945312 141.2746582 65.35022831 143.09957314 C62.31520124 144.75009884 59.90996323 144.65601698 56.46484375 144.6628418 C55.46411079 144.67072723 55.46411079 144.67072723 54.44316101 144.67877197 C52.24376833 144.69194681 50.04510283 144.68324346 47.84570312 144.6730957 C46.31400412 144.67511718 44.78230606 144.67802923 43.25061035 144.68179321 C40.04279402 144.68621313 36.83522855 144.67979641 33.62744141 144.66577148 C29.51815065 144.64867954 25.40944772 144.65852253 21.30017853 144.67648888 C18.13799622 144.68733583 14.975953 144.68387624 11.81376648 144.6761055 C10.2987206 144.674106 8.78366205 144.67655399 7.26863098 144.68354416 C5.15010184 144.69117396 3.0325211 144.67953453 0.9140625 144.6628418 C-0.29076782 144.66045502 -1.49559814 144.65806824 -2.73693848 144.65560913 C-6.19226052 144.22734763 -7.36647696 143.70342422 -9.81054688 141.2746582 C-10.31111813 138.74028683 -10.31111813 138.74028683 -10.31175232 135.65037537 C-10.32158646 134.47957428 -10.33142059 133.30877319 -10.34155273 132.10249329 C-10.33188477 130.81666855 -10.3222168 129.53084381 -10.31225586 128.20605469 C-10.31603848 126.83941084 -10.32153806 125.47277082 -10.32862854 124.10614014 C-10.34260687 120.3933294 -10.33139773 116.68098082 -10.31491733 112.96819568 C-10.30108452 109.0867085 -10.30752477 105.20524864 -10.31105042 101.32374573 C-10.31375363 94.80608657 -10.3002664 88.28861146 -10.27709961 81.77099609 C-10.25047791 74.22905074 -10.24874583 66.68741295 -10.26048797 59.1454367 C-10.27125527 51.89721635 -10.2650877 44.64910756 -10.25093269 37.40089607 C-10.24516486 34.31278925 -10.24526176 31.22476386 -10.24999809 28.13665581 C-10.2547595 24.50290104 -10.24470153 20.86948446 -10.22304344 17.23579407 C-10.21479635 15.26097736 -10.22133802 13.28611642 -10.22824097 11.31129456 C-10.21833633 10.14331329 -10.2084317 8.97533203 -10.19822693 7.7719574 C-10.19579703 6.75266364 -10.19336714 5.73336988 -10.19086361 4.68318844 C-10.00260683 3.49096597 -10.00260683 3.49096597 -9.81054688 2.2746582 C-6.14789913 -0.16710696 -4.36724331 0.01615418 0 0 Z " fill="currentColor" transform="translate(737.810546875,214.725341796875)"/>
<path d="M0 0 C0 4.95 0 9.9 0 15 C-1.32 15 -2.64 15 -4 15 C-3.93280279 21.4233039 -3.84291935 27.84600856 -3.73754883 34.26879883 C-3.70437448 36.4519945 -3.6763194 38.63527439 -3.65356445 40.81860352 C-3.61988096 43.96406817 -3.56755724 47.10876624 -3.51171875 50.25390625 C-3.50532883 51.2239711 -3.4989389 52.19403595 -3.49235535 53.1934967 C-3.36911606 58.92410794 -2.54924254 62.86992477 0 68 C1.1365087 75.16947572 0.2555546 81.46153188 -3.296875 87.80078125 C-6.64742851 92.12729874 -11.1776545 94.58882725 -16 97 C-23.9006702 97.63246835 -31.54046447 98.13758407 -38 93 C-43.47473373 87.81987077 -46.19991128 82.77164527 -46.95703125 75.171875 C-47.11137752 67.37037264 -44.34583403 61.58595424 -39 56 C-34.55134219 52.29099855 -30.58132393 50.86258021 -24.8125 50.9375 C-23.224375 50.958125 -21.63625 50.97875 -20 51 C-20 47.04 -20 43.08 -20 39 C-20.66 38.67 -21.32 38.34 -22 38 C-21.67 36.68 -21.34 35.36 -21 34 C-20.67 27.73 -20.34 21.46 -20 15 C-56.63 15 -93.26 15 -131 15 C-131 10.71 -131 6.42 -131 2 C-115.51194022 0.92278813 -100.01439128 0.68529172 -84.49485397 0.46757126 C-82.35723902 0.43724805 -80.21964991 0.40547594 -78.08206177 0.37332153 C-52.05429601 -0.01586244 -26.03059949 -0.12240389 0 0 Z M-14 39 C-14 43.62 -14 48.24 -14 53 C-11.525 53.99 -11.525 53.99 -9 55 C-9 49.72 -9 44.44 -9 39 C-10.65 39 -12.3 39 -14 39 Z M-37.75 62.6875 C-41.12310225 67.04624901 -42.36756692 71.8651793 -41.7265625 77.33203125 C-40.07135388 83.64117059 -36.32248524 87.39444548 -31 91 C-26.16935225 92.61021592 -20.8521888 92.95802887 -15.96484375 91.31640625 C-10.80219018 88.58190183 -6.85467001 84.56401003 -5 79 C-4.26511598 72.10895641 -4.83703009 67.58714383 -9 62 C-13.39324224 57.58381654 -17.09140705 55.85098654 -23.3125 55.6875 C-30.04840575 55.7673724 -33.00306753 58.04845236 -37.75 62.6875 Z " fill="currentColor" transform="translate(558,393)"/>
<path d="M0 0 C0.87423111 -0.00945648 1.74846222 -0.01891296 2.64918518 -0.02865601 C3.5898735 -0.02258331 4.53056183 -0.01651062 5.49975586 -0.01025391 C6.95121254 -0.01455917 6.95121254 -0.01455917 8.43199158 -0.01895142 C10.47712794 -0.02099283 12.5222838 -0.01545759 14.56738281 -0.00292969 C17.7060892 0.01314002 20.8435112 -0.00278495 23.98217773 -0.02197266 C25.96720663 -0.01999058 27.95223472 -0.01614764 29.93725586 -0.01025391 C31.35132469 -0.01936295 31.35132469 -0.01936295 32.79396057 -0.02865601 C33.66503952 -0.01919952 34.53611847 -0.00974304 35.43359375 0 C36.20175919 0.00238678 36.96992462 0.00477356 37.7613678 0.00723267 C39.65209961 0.38818359 39.65209961 0.38818359 41.65209961 3.38818359 C41.91952515 5.93066406 41.91952515 5.93066406 41.94262695 9.00537109 C41.95538666 10.15666504 41.96814636 11.30795898 41.98129272 12.49414062 C41.98351837 13.7379248 41.98574402 14.98170898 41.98803711 16.26318359 C41.99469391 17.53919434 42.00135071 18.81520508 42.00820923 20.12988281 C42.01834272 22.83005717 42.02389027 25.52982893 42.02270508 28.22998047 C42.02250159 31.69047228 42.0498339 35.15014553 42.0842495 38.61044312 C42.11182279 41.9113263 42.11066631 45.2122008 42.11303711 48.51318359 C42.12740814 49.75696777 42.14177917 51.00075195 42.15658569 52.28222656 C42.15043243 53.43352051 42.14427917 54.58481445 42.13793945 55.77099609 C42.14078949 56.78564941 42.14363953 57.80030273 42.14657593 58.84570312 C41.65209961 61.38818359 41.65209961 61.38818359 39.87564087 63.21598816 C37.5280673 64.45357033 36.21676047 64.76289579 33.58959961 64.76049805 C32.80198242 64.76672684 32.01436523 64.77295563 31.20288086 64.77937317 C30.36112305 64.77016342 29.51936523 64.76095367 28.65209961 64.75146484 C27.34305664 64.7522126 27.34305664 64.7522126 26.00756836 64.75297546 C24.16509724 64.75063819 22.32262274 64.74093009 20.48022461 64.72436523 C17.66222541 64.70076838 14.84517255 64.70380746 12.02709961 64.71044922 C10.23542731 64.70487227 8.44375899 64.69776228 6.65209961 64.68896484 C5.8103418 64.68987625 4.96858398 64.69078766 4.10131836 64.69172668 C3.31370117 64.68219467 2.52608398 64.67266266 1.71459961 64.6628418 C1.02495117 64.65823441 0.33530273 64.65362701 -0.37524414 64.64888 C-2.72868474 64.33786103 -4.32890193 63.62489851 -6.34790039 62.38818359 C-7.64575942 59.79246554 -7.48916811 57.88308187 -7.5090332 54.97631836 C-7.51864075 53.84496964 -7.52824829 52.71362091 -7.53814697 51.54798889 C-7.54239685 50.32091721 -7.54664673 49.09384552 -7.55102539 47.82958984 C-7.55672546 46.5743602 -7.56242554 45.31913055 -7.56829834 44.02586365 C-7.5777581 41.36689626 -7.58465011 38.70804204 -7.58813477 36.04907227 C-7.59362314 32.64140177 -7.61765908 29.23413012 -7.64610672 25.82658482 C-7.66920338 22.57761655 -7.67118057 19.32862874 -7.67602539 16.07958984 C-7.68837219 14.85454239 -7.70071899 13.62949493 -7.71343994 12.36732483 C-7.71043884 11.23282394 -7.70743774 10.09832306 -7.7043457 8.92944336 C-7.70799133 7.92953873 -7.71163696 6.92963409 -7.71539307 5.89942932 C-7.34790039 3.38818359 -7.34790039 3.38818359 -6.09736633 1.56611633 C-3.90962253 0.09308677 -2.62760485 0.00815583 0 0 Z M3.33959961 31.82568359 C0.10888048 36.73159043 -0.94986994 40.46881632 -0.34790039 46.38818359 C1.62242675 52.58232581 4.96529055 56.31387615 10.65209961 59.38818359 C15.70633859 61.07292992 19.93665492 60.96837673 24.77709961 58.76318359 C29.62626323 56.11732927 32.87706031 52.71330151 34.65209961 47.38818359 C35.21566641 41.69832649 34.98006394 37.21909956 31.65209961 32.38818359 C27.28543115 27.99054585 23.77531598 25.28738134 17.40209961 25.07568359 C11.27415405 25.15539671 7.58525888 27.35052923 3.33959961 31.82568359 Z " fill="currentColor" transform="translate(436.347900390625,202.61181640625)"/>
<path d="M0 0 C3.58407713 3.24273645 6.22035241 5.83975896 7.0078125 10.7734375 C7.26383919 16.45722994 6.56126932 20.02438655 2.625 24.375 C-1.77238686 28.35358811 -5.31811029 28.9572621 -11.046875 28.69140625 C-15.91776066 28.02942347 -19.41043598 25.21418585 -22.41015625 21.37109375 C-24.57709502 16.88807467 -24.38136154 12.15677998 -23.375 7.375 C-18.21268852 -1.45707137 -9.40766434 -4.52961616 0 0 Z M-17.375 8.375 C-18.82647903 11.27795805 -18.74739025 13.14761779 -18.375 16.375 C-15.89027166 20.36562431 -14.40751036 22.06155935 -9.875 23.4375 C-5.91977949 23.36687106 -4.39257067 22.88964223 -1.375 20.375 C1.19099956 17.29580053 1.63345985 15.85721121 1.5625 11.8125 C0.51314046 7.96484836 -0.06916961 6.57888692 -3.375 4.375 C-9.76948186 2.15261078 -12.83685745 3.61548464 -17.375 8.375 Z " fill="currentColor" transform="translate(543.375,453.625)"/>
<path d="M0 0 C2.875 1 2.875 1 4.8125 2.6875 C6.28825591 5.89943934 5.93944212 7.66474802 4.875 11 C3.1875 12.9375 3.1875 12.9375 0.875 14 C-2.26641856 13.87177883 -4.33617432 13.4995896 -7 11.8125 C-8.73122307 9.02330727 -8.64884241 7.20853478 -8.125 4 C-5.44552793 0.92648792 -4.10841148 0 0 0 Z " fill="currentColor" transform="translate(536.125,460)"/>
</svg>
