<?xml version="1.0" encoding="UTF-8"?>
<svg version="1.1" xmlns="http://www.w3.org/2000/svg" viewBox="0 0 1393 458">
<path d="M0 0 C26.59193833 -0.70974924 53.67997737 2.08553319 78.8203125 11.06640625 C80.1085396 11.43034579 80.1085396 11.43034579 81.42279148 11.80163765 C83.8203125 13.06640625 83.8203125 13.06640625 84.83135128 15.40781975 C85.0175179 16.41211588 85.20368452 17.41641201 85.39549255 18.45114136 C85.62615858 19.62983669 85.85682461 20.80853203 86.09448051 22.0229454 C86.26918692 22.99848004 86.26918692 22.99848004 86.44742274 23.99372244 C86.83567303 26.15178675 87.25409603 28.30230652 87.67888069 30.45346451 C88.68859207 35.60026242 89.65306022 40.75519242 90.61743164 45.91064453 C90.98877944 47.88487995 91.360363 49.85907103 91.73216248 51.83322144 C92.7344971 57.15901591 93.73353407 62.48542409 94.73193669 67.81195688 C95.78077733 73.40452474 96.83263265 78.99652557 97.88414001 84.58859253 C99.64855263 93.97426044 101.4110342 103.36028918 103.17211914 112.74658203 C105.65143496 125.9609165 108.13416649 139.17460749 110.61762059 152.38816476 C113.94896761 170.11405234 117.27933713 187.84012471 120.60572243 205.56694412 C120.96437911 207.47807268 121.32313829 209.38918201 121.68201065 211.30027008 C122.46938848 215.49351249 123.25554443 219.68696724 124.03730965 223.88125992 C124.51368605 226.43655649 124.9983833 228.98960041 125.49069023 231.54192734 C125.6751124 232.51083027 125.85953457 233.4797332 126.04954529 234.47799683 C126.27833956 235.65729924 126.27833956 235.65729924 126.51175594 236.86042595 C126.85110351 239.28654212 126.87356561 241.61978237 126.8203125 244.06640625 C125.98176066 244.06502356 125.98176066 244.06502356 125.12626839 244.06361294 C106.73262454 244.03382056 88.33897632 244.01487945 69.9453125 244.00390625 C69.23835834 244.00347195 68.53140417 244.00303764 67.80302715 244.00259018 C26.51429896 243.97791635 -14.76800454 244.10208793 -56.0546875 244.56640625 C-57.6506992 244.58434298 -57.6506992 244.58434298 -59.27895355 244.60264206 C-71.91268148 244.7456458 -84.54625376 244.89944398 -97.1796875 245.06640625 C-96.54992571 245.06125252 -95.92016392 245.05609879 -95.27131844 245.05078888 C-79.57590227 244.92253283 -63.88046437 244.79738502 -48.18499947 244.67525482 C-40.59321041 244.61611439 -33.00143063 244.55609615 -25.40966797 244.49365234 C-16.58563414 244.4211942 -7.76158015 244.35173558 1.0625 244.28515625 C1.79728608 244.27957773 2.53207216 244.27399922 3.28912449 244.26825166 C20.45293135 244.13874415 37.61593118 244.04726865 54.78027344 244.05932617 C55.50936424 244.05983439 56.23845505 244.06034261 56.98963952 244.06086624 C63.43511836 244.06592506 69.88059132 244.07385255 76.32606125 244.0857296 C90.92863546 244.11207576 105.51798106 244.08734156 120.11545372 243.67326546 C157.15031114 242.65948519 186.0557544 247.5195522 219.8203125 264.06640625 C219.8203125 264.72640625 219.8203125 265.38640625 219.8203125 266.06640625 C217.62007232 266.92924554 215.41456596 267.75501912 213.1953125 268.56640625 C211.96554687 269.03046875 210.73578125 269.49453125 209.46875 269.97265625 C198.63277525 273.09680722 186.31397102 270.78914783 175.3203125 269.56640625 C172.70614669 269.28098072 170.09149003 269.00112216 167.4765625 268.72265625 C165.77209961 268.53413086 165.77209961 268.53413086 164.03320312 268.34179688 C160.94335739 268.07695295 157.91961342 268.017211 154.8203125 268.06640625 C155.1503125 268.39640625 155.4803125 268.72640625 155.8203125 269.06640625 C155.89302991 271.4195418 155.90402118 273.77474293 155.8828125 276.12890625 C155.87378906 277.41925781 155.86476563 278.70960938 155.85546875 280.0390625 C155.84386719 281.03808594 155.83226562 282.03710938 155.8203125 283.06640625 C149.17743533 285.79359809 142.49254643 288.28009653 135.6875 290.5703125 C134.27331032 291.05029694 134.27331032 291.05029694 132.83055115 291.53997803 C129.78645347 292.57254814 126.74105204 293.60118989 123.6953125 294.62890625 C119.45661786 296.05997784 115.21828016 297.49209614 110.98046875 298.92578125 C109.41086647 299.45653008 109.41086647 299.45653008 107.80955505 299.9980011 C101.62452209 302.09571135 95.46108186 304.24406601 89.31640625 306.45703125 C72.60205939 312.4546275 56.73345061 317.32864814 38.8203125 317.06640625 C37.73789273 319.76785257 36.66737285 322.4700085 35.63607788 325.19155884 C31.1446354 336.08413776 25.13153298 347.87335417 14.18684387 353.39500427 C-1.25291811 359.54736368 -18.39167906 361.4575736 -34.73150635 363.86114502 C-41.1318708 364.83255684 -47.50509378 365.95760025 -53.8828125 367.06640625 C-63.18030993 368.66028697 -72.48365221 370.19903941 -81.81005859 371.61474609 C-83.25941551 371.83859734 -83.25941551 371.83859734 -84.73805237 372.06697083 C-89.26237809 372.73991336 -93.58968114 373.24347411 -98.1796875 373.06640625 C-98.69354004 372.09405029 -99.20739258 371.12169434 -99.73681641 370.11987305 C-101.67065838 366.46095905 -103.60545883 362.80255257 -105.54052734 359.14428711 C-106.3728141 357.57052898 -107.20485189 355.99663915 -108.03662109 354.42260742 C-109.24248484 352.14075334 -110.4492172 349.85936087 -111.65625 347.578125 C-112.04701721 346.83875702 -112.43778442 346.09938904 -112.84039307 345.33761597 C-115.55994298 340.20310401 -118.34429745 335.10829684 -121.19677734 330.04614258 C-122.1796875 328.06640625 -122.1796875 328.06640625 -122.1796875 326.06640625 C-123.30244583 326.18567474 -124.42520416 326.30494324 -125.58198547 326.42782593 C-140.31758234 327.9629868 -155.07510222 329.11637452 -169.84765625 330.23046875 C-172.46552874 330.4292804 -175.08339255 330.6282063 -177.70124817 330.82723999 C-183.14615594 331.24079414 -188.59122169 331.65221839 -194.03637695 332.0625 C-200.30688262 332.53501451 -206.5770519 333.01181978 -212.84707659 333.4906708 C-218.92945827 333.95502112 -225.01212133 334.41557829 -231.09490395 334.87464523 C-233.66371914 335.06895726 -236.23245511 335.26431974 -238.80110741 335.46077347 C-242.38433964 335.73442153 -245.96787258 336.00373939 -249.55151367 336.27197266 C-250.60047318 336.35298721 -251.64943268 336.43400177 -252.73017883 336.51747131 C-258.56629275 336.94913831 -264.32753559 337.14341479 -270.1796875 337.06640625 C-269.72271097 343.6249849 -268.47073486 348.49413782 -265.6171875 354.37890625 C-264.89383679 355.93597183 -264.17391587 357.49463432 -263.45703125 359.0546875 C-262.89798096 360.26825928 -262.89798096 360.26825928 -262.32763672 361.50634766 C-260.32303295 365.97684427 -258.49754499 370.51744116 -256.6796875 375.06640625 C-256.32962646 375.93305908 -255.97956543 376.79971191 -255.61889648 377.69262695 C-255.29864502 378.49659912 -254.97839355 379.30057129 -254.6484375 380.12890625 C-254.36419922 380.84175781 -254.07996094 381.55460937 -253.78710938 382.2890625 C-253.1796875 384.06640625 -253.1796875 384.06640625 -253.1796875 386.06640625 C-273.96945386 390.26324161 -273.96945386 390.26324161 -280.51074219 386.85009766 C-284.47352155 383.50594222 -287.27716419 379.35424401 -289.98925781 374.96972656 C-291.50899041 372.53989979 -293.27580042 370.3842614 -295.1171875 368.19140625 C-296.014375 367.04865234 -296.014375 367.04865234 -296.9296875 365.8828125 C-298.84067067 363.49076586 -300.7812632 361.1322233 -302.7421875 358.78125 C-303.37906494 358.01603027 -304.01594238 357.25081055 -304.67211914 356.46240234 C-305.95170258 354.92728768 -307.23465595 353.39497466 -308.52124023 351.86572266 C-309.10848877 351.1597998 -309.6957373 350.45387695 -310.30078125 349.7265625 C-310.8311499 349.09371338 -311.36151855 348.46086426 -311.90795898 347.80883789 C-313.1796875 346.06640625 -313.1796875 346.06640625 -314.1796875 343.06640625 C-315.00152008 343.16137327 -315.00152008 343.16137327 -315.83995533 343.25825882 C-329.40702111 344.82566622 -342.97471105 346.38757619 -356.54302692 347.94412613 C-363.10555319 348.69706958 -369.66787453 349.45173037 -376.22973633 350.21044922 C-401.60514954 353.14326948 -426.98056041 356.06098648 -452.41015625 358.48828125 C-453.26944544 358.57255623 -454.12873463 358.65683121 -455.01406288 358.74365997 C-464.22059852 359.64006888 -473.26019931 360.16711786 -482.5193634 360.06817627 C-492.89551896 360.00744809 -503.2794381 360.52606019 -513.64794827 360.87412262 C-517.07083265 360.98835429 -520.4938248 361.09925845 -523.91680908 361.21044922 C-531.85312477 361.46876417 -539.78931237 361.73088502 -547.72548676 361.99349976 C-557.84099252 362.32808183 -567.95654889 362.66108074 -578.07223153 362.99027443 C-581.46502437 363.1007943 -584.85778415 363.2121808 -588.25048065 363.32562256 C-592.03249252 363.45187576 -595.81457551 363.57576647 -599.59667969 363.69921875 C-600.69724197 363.7366217 -601.79780426 363.77402466 -602.93171692 363.81256104 C-610.01685393 364.04072293 -617.09105007 364.10833128 -624.1796875 364.06640625 C-624.23520782 364.72401947 -624.29072815 365.38163269 -624.34793091 366.05917358 C-624.97776146 373.32236015 -626.32737751 380.34445879 -627.80664062 387.47460938 C-629.92796384 396.4436823 -629.92796384 396.4436823 -627.3671875 404.81640625 C-626.6453125 405.88890625 -625.9234375 406.96140625 -625.1796875 408.06640625 C-621.28125811 418.66882927 -621.19353255 427.48195694 -625.1796875 438.06640625 C-629.75520036 447.29075749 -636.7685715 453.15180192 -646.4296875 456.56640625 C-655.5435139 459.03650873 -664.65058812 458.64262315 -673.125 454.28125 C-673.80304688 453.88035156 -674.48109375 453.47945313 -675.1796875 453.06640625 C-675.87835937 452.65519531 -676.57703125 452.24398438 -677.296875 451.8203125 C-684.64060979 446.92910801 -688.8960396 439.49514303 -691.1796875 431.06640625 C-692.10036094 420.83194333 -691.87131154 411.28280811 -685.4609375 402.7890625 C-683.76433751 400.8013087 -682.02278314 398.91805453 -680.1796875 397.06640625 C-679.65503906 396.49792969 -679.13039063 395.92945313 -678.58984375 395.34375 C-677.1796875 394.06640625 -677.1796875 394.06640625 -675.1796875 394.06640625 C-675.1796875 384.82640625 -675.1796875 375.58640625 -675.1796875 366.06640625 C-679.6965625 366.23140625 -684.2134375 366.39640625 -688.8671875 366.56640625 C-694.63754467 366.75219893 -700.40837875 366.91381832 -706.1796875 367.06640625 C-707.21174316 367.09471527 -707.21174316 367.09471527 -708.26464844 367.12359619 C-712.79867626 367.24523753 -717.33193034 367.3217804 -721.8671875 367.37890625 C-723.60778442 367.42337891 -723.60778442 367.42337891 -725.38354492 367.46875 C-739.78197616 367.56887672 -749.47533668 362.72343348 -759.5546875 352.87890625 C-761.75564276 350.65602912 -763.4325512 348.6871107 -765.1796875 346.06640625 C-765.76026917 346.23285141 -766.34085083 346.39929657 -766.93902588 346.57078552 C-770.5015985 347.35880493 -774.04992703 346.95068652 -777.6640625 346.7265625 C-778.47965637 346.68075546 -779.29525024 346.63494843 -780.13555908 346.5877533 C-782.73396563 346.44050486 -785.33178784 346.28481867 -787.9296875 346.12890625 C-789.69397846 346.02743767 -791.45830119 345.92651977 -793.22265625 345.82617188 C-797.54215625 345.58033015 -801.86076322 345.32308102 -806.1796875 345.06640625 C-806.5096875 352.98640625 -806.8396875 360.90640625 -807.1796875 369.06640625 C-817.18138968 369.18980387 -826.96657392 368.78488022 -836.9296875 367.87890625 C-838.01053619 367.78295166 -838.01053619 367.78295166 -839.11322021 367.68505859 C-850.56180602 366.65659079 -861.93514122 365.25306726 -873.3046875 363.56640625 C-873.9905896 363.46494293 -874.6764917 363.36347961 -875.38317871 363.25894165 C-885.36260816 361.76822041 -895.27383484 359.98016766 -905.1796875 358.06640625 C-915.24774697 378.12516631 -915.24774697 378.12516631 -916.1796875 400.06640625 C-917.8296875 400.06640625 -919.4796875 400.06640625 -921.1796875 400.06640625 C-921.5096875 401.05640625 -921.8396875 402.04640625 -922.1796875 403.06640625 C-921.5196875 403.12828125 -920.8596875 403.19015625 -920.1796875 403.25390625 C-913.37716483 405.09625614 -908.39642057 409.06371374 -904.4375 414.83984375 C-900.21391648 422.31637358 -899.24817018 429.70842081 -901.1796875 438.06640625 C-903.84207844 445.69052577 -907.86941037 451.18433277 -915.0078125 455.05859375 C-923.11012981 458.75747774 -930.72276333 459.02012764 -939.046875 455.97265625 C-945.7102875 453.14131614 -950.9553332 448.47346028 -954.22265625 442 C-957.13285844 434.36242712 -957.33390654 426.53329353 -954.6171875 418.81640625 C-951.05938733 410.95179535 -945.15986617 406.1268459 -937.1796875 403.06640625 C-935.85241915 402.7096884 -934.52019985 402.36958199 -933.1796875 402.06640625 C-933.14230469 401.18597656 -933.10492187 400.30554688 -933.06640625 399.3984375 C-932.96779297 397.65626953 -932.96779297 397.65626953 -932.8671875 395.87890625 C-932.80917969 394.73035156 -932.75117187 393.58179688 -932.69140625 392.3984375 C-932.06980201 388.35089231 -930.82855045 385.55372711 -927.75927734 382.78515625 C-925.66668624 380.50821013 -924.58114199 378.09959479 -923.26171875 375.3046875 C-922.72998047 374.18642578 -922.19824219 373.06816406 -921.65039062 371.91601562 C-921.10318359 370.74876953 -920.55597656 369.58152344 -919.9921875 368.37890625 C-919.43337891 367.20005859 -918.87457031 366.02121094 -918.29882812 364.80664062 C-916.9200469 361.89588027 -915.5472632 358.98244385 -914.1796875 356.06640625 C-914.78965576 355.95272705 -915.39962402 355.83904785 -916.02807617 355.72192383 C-932.9536511 352.35610641 -932.9536511 352.35610641 -936.66503906 348.53857422 C-939.12699997 344.45764474 -940.1796875 339.80347121 -940.1796875 335.06640625 C-941.28654907 335.08238106 -941.28654907 335.08238106 -942.41577148 335.09867859 C-949.41970738 335.15589688 -956.27533993 334.84175389 -963.2421875 334.1484375 C-964.26031525 334.05108307 -965.27844299 333.95372864 -966.3274231 333.85342407 C-969.61229575 333.53607413 -972.89603562 333.20863447 -976.1796875 332.87890625 C-977.30485779 332.76725128 -978.43002808 332.65559631 -979.58929443 332.54055786 C-994.19072772 331.0850758 -1008.76632183 329.49748885 -1023.3046875 327.50390625 C-1024.00384277 327.41025787 -1024.70299805 327.3166095 -1025.42333984 327.22012329 C-1045.00250535 324.56892374 -1062.02387704 321.99235524 -1075.1796875 306.06640625 C-1086.1796875 291.28189201 -1086.1796875 291.28189201 -1086.1796875 284.06640625 C-1086.95054688 284.00582031 -1087.72140625 283.94523437 -1088.515625 283.8828125 C-1089.51851562 283.79902344 -1090.52140625 283.71523438 -1091.5546875 283.62890625 C-1092.55242187 283.54769531 -1093.55015625 283.46648437 -1094.578125 283.3828125 C-1097.1796875 283.06640625 -1097.1796875 283.06640625 -1099.1796875 282.06640625 C-1099.38330861 288.02936146 -1099.58645234 293.99233261 -1099.7890625 299.95532227 C-1099.96724366 305.19674881 -1100.14716954 310.43811191 -1100.328125 315.67944336 C-1100.79426568 329.23293255 -1101.23795718 342.78651171 -1101.62546158 356.34249687 C-1101.74702865 360.56256664 -1101.8735092 364.78249264 -1101.99992943 369.00241947 C-1102.10126641 372.40394544 -1102.19871796 375.80550236 -1102.2880249 379.20736694 C-1102.38918274 383.00573618 -1102.50195189 386.80359824 -1102.6171875 390.6015625 C-1102.65780807 392.30679581 -1102.65780807 392.30679581 -1102.69924927 394.04647827 C-1102.73275482 395.07922882 -1102.76626038 396.11197937 -1102.80078125 397.17602539 C-1102.83836548 398.5279171 -1102.83836548 398.5279171 -1102.87670898 399.90711975 C-1103.1796875 402.06640625 -1103.1796875 402.06640625 -1105.1796875 404.06640625 C-1109.73524306 403.51085069 -1109.73524306 403.51085069 -1111.1796875 402.06640625 C-1111.41092007 400.28125608 -1111.57835517 398.48780528 -1111.72045898 396.69335938 C-1111.81409225 395.53748825 -1111.90772552 394.38161713 -1112.00419617 393.1907196 C-1112.10206924 391.9225087 -1112.19994232 390.65429779 -1112.30078125 389.34765625 C-1112.40505936 388.03936356 -1112.50933746 386.73107086 -1112.61677551 385.38313293 C-1112.89833596 381.84350388 -1113.17364318 378.30341574 -1113.44715881 374.76315689 C-1113.61683446 372.57096744 -1113.78798524 370.37889798 -1113.95959473 368.18685913 C-1116.30817916 338.16372453 -1118.29621176 308.17281734 -1119.1796875 278.06640625 C-1120.22125 277.78667969 -1121.2628125 277.50695312 -1122.3359375 277.21875 C-1140.58174142 272.1755085 -1158.93934959 265.23048867 -1172.1796875 251.06640625 C-1172.5096875 250.07640625 -1172.8396875 249.08640625 -1173.1796875 248.06640625 C-1160.9571453 232.35170913 -1142.38735783 222.52879431 -1123.1796875 218.06640625 C-1121.8596875 218.06640625 -1120.5396875 218.06640625 -1119.1796875 218.06640625 C-1119.12808472 216.59337036 -1119.12808472 216.59337036 -1119.07543945 215.09057617 C-1118.15171265 189.51727886 -1116.55037971 164.01753807 -1114.6171875 138.50390625 C-1114.56114475 137.76277462 -1114.50510201 137.02164299 -1114.44736099 136.25805283 C-1113.07503012 118.12482971 -1113.07503012 118.12482971 -1112.44161987 110.34054565 C-1112.26763054 108.16568915 -1112.10633817 105.98977792 -1111.95803833 103.8130188 C-1111.88431 102.82035004 -1111.81058167 101.82768127 -1111.73461914 100.80493164 C-1111.67512589 99.93518204 -1111.61563263 99.06543243 -1111.55433655 98.16932678 C-1111.1796875 96.06640625 -1111.1796875 96.06640625 -1109.1796875 94.06640625 C-1104.62413194 94.62196181 -1104.62413194 94.62196181 -1103.1796875 96.06640625 C-1103.03734823 97.65478176 -1102.96243108 99.24924752 -1102.91430664 100.84326172 C-1102.88072556 101.8760878 -1102.84714447 102.90891388 -1102.81254578 103.97303772 C-1102.78030411 105.11502121 -1102.74806244 106.2570047 -1102.71484375 107.43359375 C-1102.67724442 108.62758286 -1102.63964508 109.82157196 -1102.60090637 111.05174255 C-1102.49836616 114.33114857 -1102.40000782 117.61064971 -1102.30330658 120.89023209 C-1102.20140764 124.30999024 -1102.09404242 127.72957531 -1101.98681641 131.14916992 C-1101.85343046 135.41004314 -1101.72032001 139.67092296 -1101.58929443 143.93186951 C-1101.15292218 158.1031812 -1100.67454419 172.27297305 -1100.18942261 186.44268799 C-1100.05553353 190.35418992 -1099.92230829 194.2657139 -1099.78930664 198.17724609 C-1099.58652555 204.14031404 -1099.38327658 210.10336585 -1099.1796875 216.06640625 C-1098.5210159 215.95411682 -1097.8623443 215.84182739 -1097.18371296 215.72613525 C-1085.52841128 213.83259126 -1073.79774106 212.60633579 -1062.06518555 211.30078125 C-1059.63290211 211.02811679 -1057.20064678 210.75520149 -1054.76841736 210.48205566 C-1049.55281692 209.89677898 -1044.33704661 209.31304202 -1039.12112999 208.73059082 C-1031.5711871 207.88740377 -1024.02169816 207.04020535 -1016.472334 206.191854 C-1004.20887143 204.81376774 -991.94523371 203.43724813 -979.68139648 202.0625 C-978.94917402 201.98041841 -978.21695156 201.89833682 -977.46254054 201.81376791 C-967.05836497 200.64754506 -956.65400658 199.48296129 -946.24957279 198.31904459 C-945.14896517 198.19592221 -945.14896517 198.19592221 -944.02612305 198.0703125 C-943.29328677 197.98833288 -942.5604505 197.90635325 -941.80540707 197.8218894 C-929.57777924 196.45392089 -917.35062611 195.0817609 -905.12385398 193.70616531 C-897.59424767 192.85920228 -890.06426442 192.01575149 -882.53375451 191.17685986 C-876.76676453 190.53411018 -871.00041842 189.88573051 -865.23429298 189.23527527 C-862.87223484 188.96974263 -860.50996635 188.70607337 -858.1474762 188.44441223 C-854.92082537 188.08676987 -851.69499755 187.72243161 -848.46928406 187.35644531 C-847.53649917 187.25468868 -846.60371428 187.15293205 -845.64266318 187.04809189 C-838.7132809 186.25099408 -831.76481662 185.39530606 -825.7109375 181.6953125 C-824.90970459 181.21352539 -824.10847168 180.73173828 -823.28295898 180.23535156 C-821.9943396 179.44016113 -821.9943396 179.44016113 -820.6796875 178.62890625 C-818.72286608 177.44756903 -816.76582101 176.26660222 -814.80859375 175.0859375 C-813.74914551 174.44221191 -812.68969727 173.79848633 -811.59814453 173.13525391 C-805.97068319 169.72951848 -800.31096651 166.37828518 -794.65301514 163.02352905 C-792.60901135 161.81155829 -790.56544224 160.59885754 -788.52197266 159.38598633 C-785.08975077 157.34905252 -781.65673364 155.3134634 -778.22344971 153.27832031 C-776.19523068 152.07562308 -774.16764601 150.87186199 -772.14013672 149.66796875 C-768.89468569 147.74164807 -765.64609284 145.82072376 -762.39529419 143.90344238 C-761.19581375 143.1950463 -759.99725881 142.48508006 -758.79977417 141.77331543 C-745.11449625 133.64257392 -732.03899936 127.2323808 -716.6796875 123.19140625 C-715.1072221 122.76761029 -713.53487795 122.34336418 -711.96264648 121.91870117 C-657.34900711 107.28421262 -599.90149466 94.6486045 -543.1796875 93.06640625 C-542.05095215 93.03353516 -542.05095215 93.03353516 -540.89941406 93 C-489.73829583 91.75064424 -434.79860111 100.5887471 -387.9765625 121.94140625 C-387.03224365 122.37054321 -387.03224365 122.37054321 -386.06884766 122.80834961 C-384.4518134 123.56047418 -382.84999557 124.34509089 -381.25 125.1328125 C-373.70456512 127.42716229 -365.64292487 123.81768231 -358.453125 121.46875 C-356.18230724 120.74278982 -353.91147343 120.01687986 -351.640625 119.29101562 C-348.08707951 118.14563968 -344.53448818 116.99736687 -340.98242188 115.84741211 C-337.53742146 114.73482535 -334.08921331 113.63265573 -330.640625 112.53125 C-329.5811264 112.18440659 -328.52162781 111.83756317 -327.43002319 111.48020935 C-315.961489 107.82441743 -315.961489 107.82441743 -309.75 110.59765625 C-308.04457031 111.5721875 -308.04457031 111.5721875 -306.3046875 112.56640625 C-305.71171875 112.90027344 -305.11875 113.23414062 -304.5078125 113.578125 C-303.05864033 114.39620607 -301.61821769 115.22975368 -300.1796875 116.06640625 C-300.1796875 116.72640625 -300.1796875 117.38640625 -300.1796875 118.06640625 C-302.0843825 119.57027636 -303.99148153 120.94946091 -305.9921875 122.31640625 C-307.26673334 123.20544442 -308.5401041 124.09616879 -309.8125 124.98828125 C-310.50762695 125.47490234 -311.20275391 125.96152344 -311.91894531 126.46289062 C-316.11234177 129.4372133 -320.23597895 132.5066028 -324.3671875 135.56640625 C-325.98528303 136.76485514 -327.60374799 137.96280546 -329.22265625 139.16015625 C-329.91383545 139.67255859 -330.60501465 140.18496094 -331.31713867 140.71289062 C-332.90992305 141.87036822 -334.54143214 142.97423601 -336.1796875 144.06640625 C-323.62850777 150.81690562 -310.92272357 157.2504534 -298.1796875 163.62890625 C-297.36512085 164.03743835 -296.5505542 164.44597046 -295.71130371 164.86688232 C-293.3685867 166.04118646 -291.02441399 167.21252673 -288.6796875 168.3828125 C-287.96790344 168.7396965 -287.25611938 169.09658051 -286.52276611 169.46427917 C-280.50001887 172.4614495 -276.3784908 173.15353045 -269.73828125 172.79907227 C-268.79327255 172.75218797 -267.84826385 172.70530367 -266.87461853 172.65699863 C-249.7004856 171.76896933 -232.53864289 170.628415 -215.37622452 169.5418632 C-210.07277546 169.20661404 -204.76917022 168.87385501 -199.46557617 168.54090881 C-186.0368054 167.69747913 -172.60823712 166.85084856 -159.1796875 166.00390625 C-144.62115777 165.08572059 -130.06259273 164.16811473 -115.50379848 163.25413138 C-109.20474581 162.85857564 -102.90581134 162.46120107 -96.6069622 162.06241786 C-92.69970018 161.81541779 -88.79234215 161.56996376 -84.88495636 161.32493019 C-83.07490178 161.21109986 -81.26488768 161.0966238 -79.45491791 160.98145294 C-76.98412921 160.82432097 -74.51320593 160.66950084 -72.04223633 160.51524353 C-70.97036874 160.44622964 -70.97036874 160.44622964 -69.87684727 160.37582153 C-65.97118966 160.13473491 -62.09255555 160.02265058 -58.1796875 160.06640625 C-58.07845581 159.44659378 -57.97722412 158.82678131 -57.8729248 158.18818665 C-56.47245226 150.03405117 -54.50987282 142.05836629 -52.4609375 134.046875 C-52.08644376 132.57118777 -51.71226113 131.09542155 -51.33836365 129.61958313 C-50.33236069 125.65306946 -49.32158597 121.68778728 -48.30955124 117.72280884 C-47.46503693 114.41253165 -46.62276672 111.10168506 -45.78042889 107.7908535 C-43.58647438 99.16800808 -41.38685498 90.54661705 -39.1851759 81.9257412 C-37.63774903 75.8650236 -36.09473869 69.80319432 -34.55419922 63.74072266 C-32.6749414 56.34538517 -30.79159804 48.95110535 -28.90254021 41.55826473 C-27.91242611 37.68332338 -26.92400963 33.80796964 -25.93994141 29.93148804 C-25.01856574 26.30277041 -24.09163415 22.67551812 -23.160326 19.04933739 C-22.65815199 17.08834532 -22.1616906 15.12589315 -21.66539001 13.16340637 C-21.36580887 12.00153305 -21.06622772 10.83965973 -20.75756836 9.64257812 C-20.49954941 8.63191284 -20.24153046 7.62124756 -19.97569275 6.57995605 C-19.1796875 4.06640625 -19.1796875 4.06640625 -17.1796875 1.06640625 C-11.55380741 0.04138498 -5.7104407 0.173974 0 0 Z M-566.63671875 103.76171875 C-567.44023708 104.8921176 -568.22448748 106.03638246 -568.9921875 107.19140625 C-569.41741699 107.81104248 -569.84264648 108.43067871 -570.28076172 109.0690918 C-581.47956933 125.68875344 -590.4750224 143.85069221 -596.1796875 163.06640625 C-596.42589844 163.89140625 -596.67210937 164.71640625 -596.92578125 165.56640625 C-597.99263687 169.45123225 -598.64697305 173.04775052 -598.1796875 177.06640625 C-597.13355253 178.85124105 -597.13355253 178.85124105 -595.1796875 180.06640625 C-592.05965259 180.46078602 -592.05965259 180.46078602 -588.48570251 180.29881287 C-587.82159109 180.28640767 -587.15747967 180.27400247 -586.47324365 180.26122135 C-584.37435016 180.21526958 -582.27760932 180.14464099 -580.1796875 180.06640625 C-578.91205629 180.0213048 -577.64442509 179.97620335 -576.33838081 179.92973518 C-572.31838501 179.7615176 -568.30132825 179.55946596 -564.28344727 179.34790039 C-562.75730476 179.27038758 -561.23114554 179.19320337 -559.70497131 179.11631775 C-555.61022536 178.90904008 -551.51573829 178.69702068 -547.42129254 178.48390508 C-543.11439562 178.26039864 -538.80729766 178.04082862 -534.50022888 177.82066345 C-527.27906479 177.45092306 -520.05806521 177.07809471 -512.8371582 176.70336914 C-504.50467298 176.2709952 -496.17194963 175.84347014 -487.8390823 175.41852862 C-479.79092013 175.00800097 -471.74293269 174.59414033 -463.69502068 174.17873955 C-460.28260539 174.00265706 -456.87013452 173.82771475 -453.45761299 173.65370369 C-449.44119024 173.44874132 -445.42492957 173.24084501 -441.40877342 173.03072548 C-439.93990881 172.95433714 -438.47099257 172.87893378 -437.00202179 172.80461502 C-425.14908026 173.07087047 -425.14908026 173.07087047 -414.28540039 169.72387695 C-412.3183758 166.77529449 -411.02464351 163.49355563 -409.6171875 160.25390625 C-406.3045597 152.90116236 -402.3327723 146.53604394 -397.4765625 140.1171875 C-393.09517802 134.98679022 -393.09517802 134.98679022 -391.1171875 128.87890625 C-397.0184988 118.81196345 -421.20157778 115.96238235 -432.03579712 113.13046265 C-449.61186062 108.60257014 -467.22214779 104.76611764 -485.1796875 102.06640625 C-486.19498535 101.90414551 -487.2102832 101.74188477 -488.25634766 101.57470703 C-504.31682034 99.0722793 -520.27193158 98.78233749 -536.4921875 98.75390625 C-537.52148376 98.75023041 -538.55078003 98.74655457 -539.61126709 98.74276733 C-542.56788052 98.73724653 -545.52391103 98.74800447 -548.48046875 98.765625 C-549.36999741 98.76485962 -550.25952606 98.76409424 -551.17601013 98.76330566 C-557.30225186 98.83222251 -562.28913967 98.99251436 -566.63671875 103.76171875 Z M-588.81152344 103.84155273 C-589.80910172 104.01306854 -590.80667999 104.18458435 -591.83448792 104.36129761 C-592.93324753 104.5514444 -594.03200714 104.74159119 -595.1640625 104.9375 C-596.30564316 105.13489777 -597.44722382 105.33229553 -598.62339783 105.53567505 C-635.0850529 111.85802994 -671.46012448 118.46211111 -707.4921875 126.94140625 C-708.69239029 127.22251755 -708.69239029 127.22251755 -709.9168396 127.50930786 C-712.16892904 128.03968603 -714.41880332 128.5784636 -716.66796875 129.12109375 C-717.93165283 129.42515137 -719.19533691 129.72920898 -720.49731445 130.04248047 C-727.73154229 131.74887635 -727.73154229 131.74887635 -733.6171875 135.75390625 C-737.92164136 153.44999435 -735.94411571 173.74992177 -728.1796875 190.06640625 C-704.67168991 189.05168565 -681.16920234 187.94538938 -657.67211914 186.70181274 C-655.18502819 186.57029092 -652.69788621 186.43973056 -650.21069336 186.31015015 C-646.6949797 186.12648775 -643.1795005 185.93885714 -639.6640625 185.75 C-638.09788177 185.66881927 -638.09788177 185.66881927 -636.50006104 185.58599854 C-633.72463034 185.43421316 -630.95246371 185.26038628 -628.1796875 185.06640625 C-627.37930557 185.01345398 -626.57892365 184.96050171 -625.75428772 184.90594482 C-623.35864811 184.72608835 -623.35864811 184.72608835 -620.1796875 184.06640625 C-618.66510748 181.54100149 -617.9636589 179.82408816 -617.1796875 177.06640625 C-616.64879311 175.59680473 -616.10786709 174.13080035 -615.55859375 172.66796875 C-615.26936035 171.87165039 -614.98012695 171.07533203 -614.68212891 170.25488281 C-607.11055048 149.60512346 -597.8432336 127.90188035 -584.33203125 110.35546875 C-581.8685612 107.40092947 -581.8685612 107.40092947 -582.54516602 104.86083984 C-582.75455811 104.26867676 -582.9639502 103.67651367 -583.1796875 103.06640625 C-585.07472497 103.06640625 -586.94965467 103.52117625 -588.81152344 103.84155273 Z M-755.66015625 147.19921875 C-756.56499756 147.66859863 -757.46983887 148.13797852 -758.40209961 148.62158203 C-759.86981812 149.39864502 -759.86981812 149.39864502 -761.3671875 150.19140625 C-762.38369385 150.72620605 -763.4002002 151.26100586 -764.44750977 151.81201172 C-775.89068987 157.89013221 -787.06738458 164.40655423 -798.1796875 171.06640625 C-799.03433594 171.57574707 -799.88898438 172.08508789 -800.76953125 172.60986328 C-803.05936472 173.97964166 -805.34025641 175.3628114 -807.6171875 176.75390625 C-808.27968506 177.15174316 -808.94218262 177.54958008 -809.62475586 177.95947266 C-813.34177285 180.20656696 -813.34177285 180.20656696 -815.1796875 184.06640625 C-813.05937467 186.3832424 -810.93266403 188.69410894 -808.8046875 191.00390625 C-808.20140625 191.66326172 -807.598125 192.32261719 -806.9765625 193.00195312 C-806.39648438 193.63037109 -805.81640625 194.25878906 -805.21875 194.90625 C-804.68459473 195.48753662 -804.15043945 196.06882324 -803.60009766 196.66772461 C-801.06657913 199.162487 -799.16474058 199.20463343 -795.73095703 199.19726562 C-790.22511218 199.13954176 -784.82397352 198.61343301 -779.359375 197.97265625 C-778.37470245 197.86167603 -777.39002991 197.7506958 -776.3755188 197.63635254 C-773.26795709 197.28490854 -770.1613395 196.92579379 -767.0546875 196.56640625 C-764.93234964 196.32501057 -762.80995422 196.08412039 -760.6875 195.84375 C-755.51754582 195.25713971 -750.34842314 194.66365413 -745.1796875 194.06640625 C-744.26781521 191.03756715 -744.14210924 188.62331115 -744.43334961 185.48144531 C-744.51350815 184.5808136 -744.59366669 183.68018188 -744.67625427 182.7522583 C-744.76891068 181.78858337 -744.86156708 180.82490845 -744.95703125 179.83203125 C-745.04723038 178.83886902 -745.1374295 177.84570679 -745.23036194 176.82244873 C-745.51965985 173.65315092 -745.81830385 170.48481303 -746.1171875 167.31640625 C-746.31506965 165.16672333 -746.51234265 163.01698424 -746.70898438 160.8671875 C-747.19215447 155.59958847 -747.68299907 150.33274687 -748.1796875 145.06640625 C-751.49311353 145.06640625 -752.76086525 145.69096462 -755.66015625 147.19921875 Z M-1118.1796875 226.06640625 C-1117.1796875 228.06640625 -1117.1796875 228.06640625 -1117.1796875 228.06640625 Z M-1115.1796875 229.06640625 C-1111.1796875 230.06640625 -1111.1796875 230.06640625 -1111.1796875 230.06640625 Z M-1106.1796875 229.06640625 C-1102.1796875 230.06640625 -1102.1796875 230.06640625 -1102.1796875 230.06640625 Z M-1111.1796875 230.06640625 C-1111.1796875 230.39640625 -1111.1796875 230.72640625 -1111.1796875 231.06640625 C-1109.5296875 231.06640625 -1107.8796875 231.06640625 -1106.1796875 231.06640625 C-1106.1796875 230.73640625 -1106.1796875 230.40640625 -1106.1796875 230.06640625 C-1107.8296875 230.06640625 -1109.4796875 230.06640625 -1111.1796875 230.06640625 Z M-804.1796875 246.06640625 C-804.1796875 246.39640625 -804.1796875 246.72640625 -804.1796875 247.06640625 C-802.90013184 247.08828003 -802.90013184 247.08828003 -801.59472656 247.1105957 C-783.8670375 247.44622161 -766.44090161 248.30389726 -748.828125 250.4453125 C-744.5659423 250.95484533 -740.46813998 251.20771629 -736.1796875 251.06640625 C-736.1796875 250.73640625 -736.1796875 250.40640625 -736.1796875 250.06640625 C-739.61659872 249.58295559 -743.05431444 249.10546506 -746.4921875 248.62890625 C-747.44931641 248.49419922 -748.40644531 248.35949219 -749.39257812 248.22070312 C-762.13166468 246.46210868 -774.52636848 245.93479247 -787.3671875 246.00390625 C-789.00325383 246.00893331 -790.63932167 246.01349408 -792.27539062 246.01757812 C-796.24352736 246.02848348 -800.21159041 246.04568095 -804.1796875 246.06640625 Z M-813.1796875 247.06640625 C-813.1796875 247.39640625 -813.1796875 247.72640625 -813.1796875 248.06640625 C-810.2096875 248.06640625 -807.2396875 248.06640625 -804.1796875 248.06640625 C-804.1796875 247.73640625 -804.1796875 247.40640625 -804.1796875 247.06640625 C-807.1496875 247.06640625 -810.1196875 247.06640625 -813.1796875 247.06640625 Z M-819.1796875 248.06640625 C-819.1796875 248.39640625 -819.1796875 248.72640625 -819.1796875 249.06640625 C-817.1996875 249.06640625 -815.2196875 249.06640625 -813.1796875 249.06640625 C-813.1796875 248.73640625 -813.1796875 248.40640625 -813.1796875 248.06640625 C-815.1596875 248.06640625 -817.1396875 248.06640625 -819.1796875 248.06640625 Z M-824.1796875 249.06640625 C-820.1796875 250.06640625 -820.1796875 250.06640625 -820.1796875 250.06640625 Z M-89.1796875 249.06640625 C-89.1796875 249.39640625 -89.1796875 249.72640625 -89.1796875 250.06640625 C-87.5296875 250.06640625 -85.8796875 250.06640625 -84.1796875 250.06640625 C-84.1796875 249.73640625 -84.1796875 249.40640625 -84.1796875 249.06640625 C-85.8296875 249.06640625 -87.4796875 249.06640625 -89.1796875 249.06640625 Z M-83.1796875 250.06640625 C-83.1796875 250.39640625 -83.1796875 250.72640625 -83.1796875 251.06640625 C-80.8696875 251.06640625 -78.5596875 251.06640625 -76.1796875 251.06640625 C-76.1796875 250.73640625 -76.1796875 250.40640625 -76.1796875 250.06640625 C-78.4896875 250.06640625 -80.7996875 250.06640625 -83.1796875 250.06640625 Z M-736.1796875 251.06640625 C-736.1796875 251.39640625 -736.1796875 251.72640625 -736.1796875 252.06640625 C-732.5496875 252.39640625 -728.9196875 252.72640625 -725.1796875 253.06640625 C-725.1796875 252.73640625 -725.1796875 252.40640625 -725.1796875 252.06640625 C-728.8096875 251.73640625 -732.4396875 251.40640625 -736.1796875 251.06640625 Z M-75.1796875 251.06640625 C-75.1796875 251.39640625 -75.1796875 251.72640625 -75.1796875 252.06640625 C-71.8796875 252.06640625 -68.5796875 252.06640625 -65.1796875 252.06640625 C-65.1796875 251.73640625 -65.1796875 251.40640625 -65.1796875 251.06640625 C-68.4796875 251.06640625 -71.7796875 251.06640625 -75.1796875 251.06640625 Z M-65.1796875 252.06640625 C-65.1796875 252.39640625 -65.1796875 252.72640625 -65.1796875 253.06640625 C-33.20053712 255.15517563 -1.21740121 255.66300224 30.8203125 256.06640625 C28.33315255 253.5792463 27.55752257 253.80449006 24.12475586 253.76342773 C22.65437111 253.73846474 22.65437111 253.73846474 21.15428162 253.71299744 C20.08372025 253.70458328 19.01315887 253.69616913 17.91015625 253.6875 C16.23875328 253.66200829 16.23875328 253.66200829 14.53358459 253.63600159 C10.94171959 253.58274376 7.34986054 253.54268582 3.7578125 253.50390625 C-0.89980987 253.44474439 -5.55733362 253.37988792 -10.21484375 253.3125 C-11.94839363 253.28854912 -11.94839363 253.28854912 -13.71696472 253.26411438 C-22.77559817 253.12460985 -31.82096259 252.81481263 -40.87123108 252.40525818 C-48.98048463 252.04197822 -57.063127 251.95754031 -65.1796875 252.06640625 Z M-725.1796875 253.06640625 C-725.1796875 253.39640625 -725.1796875 253.72640625 -725.1796875 254.06640625 C-723.5296875 254.06640625 -721.8796875 254.06640625 -720.1796875 254.06640625 C-720.1796875 253.73640625 -720.1796875 253.40640625 -720.1796875 253.06640625 C-721.8296875 253.06640625 -723.4796875 253.06640625 -725.1796875 253.06640625 Z M-720.1796875 254.06640625 C-720.1796875 254.39640625 -720.1796875 254.72640625 -720.1796875 255.06640625 C-718.5296875 255.06640625 -716.8796875 255.06640625 -715.1796875 255.06640625 C-715.1796875 254.73640625 -715.1796875 254.40640625 -715.1796875 254.06640625 C-716.8296875 254.06640625 -718.4796875 254.06640625 -720.1796875 254.06640625 Z M-715.1796875 255.06640625 C-711.1796875 256.06640625 -711.1796875 256.06640625 -711.1796875 256.06640625 Z M-711.1796875 256.06640625 C-707.1796875 257.06640625 -707.1796875 257.06640625 -707.1796875 257.06640625 Z M-707.1796875 257.06640625 C-703.1796875 258.06640625 -703.1796875 258.06640625 -703.1796875 258.06640625 Z M-695.1796875 260.06640625 C-691.1796875 261.06640625 -691.1796875 261.06640625 -691.1796875 261.06640625 Z M42.8203125 260.06640625 C46.8203125 261.06640625 46.8203125 261.06640625 46.8203125 261.06640625 Z M46.8203125 261.06640625 C46.8203125 261.39640625 46.8203125 261.72640625 46.8203125 262.06640625 C48.4703125 262.06640625 50.1203125 262.06640625 51.8203125 262.06640625 C51.8203125 261.73640625 51.8203125 261.40640625 51.8203125 261.06640625 C50.1703125 261.06640625 48.5203125 261.06640625 46.8203125 261.06640625 Z M51.8203125 262.06640625 C51.8203125 262.39640625 51.8203125 262.72640625 51.8203125 263.06640625 C53.8003125 263.06640625 55.7803125 263.06640625 57.8203125 263.06640625 C57.8203125 262.73640625 57.8203125 262.40640625 57.8203125 262.06640625 C55.8403125 262.06640625 53.8603125 262.06640625 51.8203125 262.06640625 Z M57.8203125 263.06640625 C57.8203125 263.39640625 57.8203125 263.72640625 57.8203125 264.06640625 C63.84627823 265.13768905 69.70940767 265.1658604 75.8203125 265.06640625 C75.8203125 264.73640625 75.8203125 264.40640625 75.8203125 264.06640625 C69.8803125 263.73640625 63.9403125 263.40640625 57.8203125 263.06640625 Z M75.8203125 265.06640625 C75.8203125 265.39640625 75.8203125 265.72640625 75.8203125 266.06640625 C87.77317807 267.03229438 99.7105855 267.17760709 111.6953125 267.19140625 C112.44930328 267.19390381 113.20329407 267.19640137 113.98013306 267.19897461 C122.97091648 267.22336797 131.86877394 267.01492796 140.8203125 266.06640625 C140.8203125 265.73640625 140.8203125 265.40640625 140.8203125 265.06640625 C119.3703125 265.06640625 97.9203125 265.06640625 75.8203125 265.06640625 Z M140.8203125 266.06640625 C140.8203125 266.39640625 140.8203125 266.72640625 140.8203125 267.06640625 C144.1203125 267.06640625 147.4203125 267.06640625 150.8203125 267.06640625 C150.8203125 266.73640625 150.8203125 266.40640625 150.8203125 266.06640625 C147.5203125 266.06640625 144.2203125 266.06640625 140.8203125 266.06640625 Z M-1111.1796875 267.06640625 C-1111.1796875 267.39640625 -1111.1796875 267.72640625 -1111.1796875 268.06640625 C-1109.5296875 268.06640625 -1107.8796875 268.06640625 -1106.1796875 268.06640625 C-1106.1796875 267.73640625 -1106.1796875 267.40640625 -1106.1796875 267.06640625 C-1107.8296875 267.06640625 -1109.4796875 267.06640625 -1111.1796875 267.06640625 Z M-1116.1796875 268.06640625 C-1116.1796875 268.39640625 -1116.1796875 268.72640625 -1116.1796875 269.06640625 C-1114.5296875 269.06640625 -1112.8796875 269.06640625 -1111.1796875 269.06640625 C-1111.1796875 268.73640625 -1111.1796875 268.40640625 -1111.1796875 268.06640625 C-1112.8296875 268.06640625 -1114.4796875 268.06640625 -1116.1796875 268.06640625 Z M-1106.1796875 268.06640625 C-1102.1796875 269.06640625 -1102.1796875 269.06640625 -1102.1796875 269.06640625 Z M-1118.1796875 270.06640625 C-1117.1796875 272.06640625 -1117.1796875 272.06640625 -1117.1796875 272.06640625 Z M-797.1796875 308.06640625 C-796.1796875 310.06640625 -796.1796875 310.06640625 -796.1796875 310.06640625 Z M-786.1796875 321.06640625 C-785.1796875 323.06640625 -785.1796875 323.06640625 -785.1796875 323.06640625 Z M-775.1796875 334.06640625 C-774.1796875 336.06640625 -774.1796875 336.06640625 -774.1796875 336.06640625 Z M-511.1796875 354.06640625 C-511.1796875 354.39640625 -511.1796875 354.72640625 -511.1796875 355.06640625 C-508.8696875 355.06640625 -506.5596875 355.06640625 -504.1796875 355.06640625 C-504.1796875 354.73640625 -504.1796875 354.40640625 -504.1796875 354.06640625 C-506.4896875 354.06640625 -508.7996875 354.06640625 -511.1796875 354.06640625 Z M-504.1796875 355.06640625 C-504.1796875 355.39640625 -504.1796875 355.72640625 -504.1796875 356.06640625 C-501.2096875 356.06640625 -498.2396875 356.06640625 -495.1796875 356.06640625 C-495.1796875 355.73640625 -495.1796875 355.40640625 -495.1796875 355.06640625 C-498.1496875 355.06640625 -501.1196875 355.06640625 -504.1796875 355.06640625 Z M-495.1796875 356.06640625 C-495.1796875 356.39640625 -495.1796875 356.72640625 -495.1796875 357.06640625 C-492.5396875 357.06640625 -489.8996875 357.06640625 -487.1796875 357.06640625 C-487.1796875 356.73640625 -487.1796875 356.40640625 -487.1796875 356.06640625 C-489.8196875 356.06640625 -492.4596875 356.06640625 -495.1796875 356.06640625 Z M-487.1796875 357.06640625 C-487.1796875 357.39640625 -487.1796875 357.72640625 -487.1796875 358.06640625 C-485.1996875 358.06640625 -483.2196875 358.06640625 -481.1796875 358.06640625 C-481.1796875 357.73640625 -481.1796875 357.40640625 -481.1796875 357.06640625 C-483.1596875 357.06640625 -485.1396875 357.06640625 -487.1796875 357.06640625 Z M-937.6796875 419.37890625 C-941.8670666 423.88033878 -942.7376951 426.50997331 -942.6328125 432.48828125 C-941.88259673 436.7567503 -939.48997892 439.3938774 -936.1796875 442.06640625 C-932.30232332 444.36810849 -928.61033712 444.76643182 -924.1796875 444.06640625 C-919.07758828 441.37095761 -916.00587713 438.54497515 -914.1796875 433.06640625 C-913.78424252 428.87468944 -913.91007849 426.58565323 -915.8671875 422.81640625 C-918.16352801 420.08562294 -920.11196707 418.79613253 -923.1796875 417.06640625 C-923.15648437 418.19820313 -923.13328125 419.33 -923.109375 420.49609375 C-923.09061849 421.977858 -923.07241816 423.45962937 -923.0546875 424.94140625 C-923.03792969 425.68777344 -923.02117187 426.43414062 -923.00390625 427.203125 C-922.9862916 429.15835086 -923.07648561 431.11382646 -923.1796875 433.06640625 C-923.8396875 433.72640625 -924.4996875 434.38640625 -925.1796875 435.06640625 C-927.8196875 435.06640625 -930.4596875 435.06640625 -933.1796875 435.06640625 C-933.1796875 429.12640625 -933.1796875 423.18640625 -933.1796875 417.06640625 C-935.50257655 416.84005892 -935.50257655 416.84005892 -937.6796875 419.37890625 Z M-675.1796875 421.06640625 C-674.74859539 427.20946887 -673.77322558 431.0160284 -670.1796875 436.06640625 C-664.75998953 440.26943733 -660.03603715 441.92344996 -653.1796875 441.06640625 C-647.7797155 439.41862068 -644.13297835 436.68526657 -641.078125 431.94921875 C-639.66118276 428.97980065 -639.3799973 426.33813303 -639.1796875 423.06640625 C-642.4796875 423.06640625 -645.7796875 423.06640625 -649.1796875 423.06640625 C-649.705625 424.52046875 -649.705625 424.52046875 -650.2421875 426.00390625 C-652.1796875 429.06640625 -652.1796875 429.06640625 -655.6171875 430.00390625 C-658.47852922 430.05410523 -660.52177952 430.02325312 -663.1796875 429.06640625 C-663.4684375 427.93203125 -663.7571875 426.79765625 -664.0546875 425.62890625 C-664.4259375 424.45328125 -664.7971875 423.27765625 -665.1796875 422.06640625 C-667.46674581 420.92287709 -668.77233512 420.96306186 -671.3046875 421.00390625 C-673.2228125 421.03484375 -673.2228125 421.03484375 -675.1796875 421.06640625 Z " fill="currentColor" transform="translate(1173.1796875,-0.06640625)"/>
</svg>
