<?xml version="1.0" encoding="UTF-8"?>
<svg version="1.1" xmlns="http://www.w3.org/2000/svg" viewBox="0 0 1436 514">
<path d="M0 0 C1.6425741 7.56931722 2.76070558 15.14975966 3.7265625 22.83203125 C3.87910492 24.02680588 4.03164734 25.22158051 4.18881226 26.45256042 C4.50815267 28.96090937 4.82572209 31.46948435 5.14160156 33.97827148 C5.62580153 37.81885762 6.1172039 41.658475 6.609375 45.49804688 C6.91969996 47.9426539 7.22961033 50.38731359 7.5390625 52.83203125 C7.75932602 54.55085258 7.75932602 54.55085258 7.98403931 56.30439758 C8.11772919 57.37288437 8.25141907 58.44137115 8.38916016 59.54223633 C8.50748199 60.47804031 8.62580383 61.4138443 8.74771118 62.37800598 C8.99397701 64.9374041 9.04543616 67.43064155 9 70 C9.84820313 70.25523438 10.69640625 70.51046875 11.5703125 70.7734375 C15.23752093 72.08494484 18.46574557 73.74643123 21.875 75.625 C23.02742188 76.25664063 24.17984375 76.88828125 25.3671875 77.5390625 C26.23601563 78.02117187 27.10484375 78.50328125 28 79 C27.38577994 84.53629181 26.02550548 89.4800109 24.24246216 94.74690247 C23.95787577 95.60337378 23.67328937 96.45984509 23.38007915 97.34227008 C22.4285067 100.20122174 21.46840356 103.05723288 20.50830078 105.91333008 C19.82285429 107.96690308 19.13794142 110.02065426 18.45352173 112.0745697 C16.59511035 117.64668135 14.72935406 123.21630909 12.86236429 128.78555131 C10.90806956 134.61967426 8.96082654 140.4561496 7.01290894 146.29240417 C3.32022589 157.3528568 -0.37831281 168.41134147 -4.07917511 179.46905965 C-9.50504245 195.68156369 -14.92338477 211.89658269 -20.34021187 228.11210918 C-20.7380264 229.30298336 -21.13584093 230.49385754 -21.54571044 231.72081882 C-22.33919305 234.09616811 -23.13265575 236.47152404 -23.92609799 238.84688681 C-26.24560175 245.79017243 -28.56723566 252.73274111 -30.89072013 259.67469561 C-32.33830876 264.00039682 -33.7847054 268.32649601 -35.23086929 272.65267372 C-35.89988314 274.65307225 -36.56943091 276.6532923 -37.23956299 278.6533165 C-38.157286 281.39245646 -39.07310145 284.1322274 -39.98849487 286.87214661 C-40.25144061 287.6553425 -40.51438635 288.43853839 -40.78530014 289.24546748 C-42.40093248 294.08928003 -43.89486073 298.95660169 -45.31000531 303.86293906 C-47.37205903 310.24955988 -52.10186504 315.56835408 -57 320 C-57.52722656 320.51949219 -58.05445313 321.03898437 -58.59765625 321.57421875 C-66.97308964 329.48731399 -77.09120736 334.52676033 -87.81274414 338.44799805 C-89.05030126 338.90104954 -89.05030126 338.90104954 -90.31285954 339.36325359 C-98.96371056 342.45422732 -107.75707209 344.700435 -116.68359375 346.83203125 C-118.42507054 347.25669139 -120.16631157 347.68231932 -121.90733337 348.10884094 C-126.39272945 349.2048574 -130.88119772 350.28766767 -135.37068939 351.36676788 C-139.53292691 352.36918368 -143.69234802 353.38312422 -147.85205078 354.39599609 C-157.0251605 356.62658866 -166.20331089 358.83601473 -175.38217163 361.0428009 C-180.0494061 362.16541031 -184.71610263 363.29025124 -189.3828125 364.41503906 C-190.34207075 364.64623884 -191.301329 364.87743862 -192.28965569 365.11564445 C-194.24842281 365.58775224 -196.20718782 366.05986877 -198.16595078 366.53199387 C-201.13787054 367.24825423 -204.109839 367.96431226 -207.08181763 368.68032837 C-228.5582422 373.85494355 -250.02956095 379.05061388 -271.5 384.25 C-272.46983196 384.4848473 -273.43966393 384.7196946 -274.43888474 384.96165848 C-289.62634008 388.63938544 -304.81331546 392.3190915 -320 396 C-321.62555565 396.39399239 -321.62555565 396.39399239 -323.28395081 396.79594421 C-326.64666601 397.61099723 -330.00937081 398.42609313 -333.37207031 399.24121094 C-334.49519465 399.51345017 -335.618319 399.78568941 -336.77547741 400.06617832 C-342.46946054 401.44649118 -348.1633029 402.82738077 -353.85688782 404.20933533 C-356.12146643 404.75895691 -358.38604874 405.30856326 -360.65063477 405.8581543 C-361.76786077 406.12929519 -362.88508677 406.40043608 -364.0361681 406.67979336 C-370.71827068 408.30075475 -377.40163629 409.91638166 -384.08609867 411.52758312 C-389.41338226 412.81183548 -394.74008385 414.09848608 -400.06640625 415.38671875 C-401.08680685 415.63349428 -402.10720745 415.88026981 -403.15852928 416.13452339 C-415.36033872 419.08994409 -427.52557927 422.14529713 -439.65234375 425.39453125 C-442.01593004 426.01680971 -444.3796904 426.63842747 -446.74365234 427.25927734 C-450.63183651 428.28081154 -454.49787922 429.35259689 -458.35791016 430.47509766 C-477.84502917 435.81800202 -498.4022839 435.30760566 -518.45747757 435.89288712 C-524.75084672 436.08317551 -531.04318096 436.30377224 -537.33569336 436.52026367 C-551.89681846 437.01759645 -566.45903862 437.47569409 -581.02169567 437.92558652 C-586.77062405 438.10351543 -592.519392 438.28626761 -598.26813549 438.47006047 C-603.93553581 438.65109157 -609.60302167 438.82925168 -615.27058178 439.00520885 C-618.60348558 439.10870294 -621.93633543 439.21344331 -625.26913261 439.32034683 C-641.18506045 439.8289491 -657.07565153 440.12272038 -673 440 C-673 440.66 -673 441.32 -673 442 C-677.29 442.66 -681.58 443.32 -686 444 C-686.04826607 448.31679643 -686.04015014 452.62135995 -686 456.9375 C-686.02900391 458.75604492 -686.02900391 458.75604492 -686.05859375 460.61132812 C-685.95194473 467.17024294 -685.51857 471.21763284 -681.03125 476.1953125 C-680.31517578 476.86965332 -679.59910156 477.54399414 -678.86132812 478.23876953 C-675.09147079 481.80589319 -674.88269279 485.88602011 -674.625 490.8125 C-674.79789806 497.20972808 -676.51997845 502.28699104 -680.87109375 507.046875 C-687.51305102 513.12382645 -692.81639258 514.48653318 -701.77734375 514.3046875 C-708.47432721 513.67151815 -712.3489222 510.96641929 -716.875 506.125 C-721.171096 500.81115005 -722.43143823 496.05544904 -722.25 489.296875 C-721.66234846 483.89782644 -719.57036476 479.60341114 -716.38671875 475.2578125 C-715.93901123 474.64309082 -715.49130371 474.02836914 -715.0300293 473.39501953 C-714.69011963 472.93466309 -714.35020996 472.47430664 -714 472 C-714.34554932 471.48794006 -714.69109863 470.97588013 -715.04711914 470.44830322 C-718.68204083 465.06167132 -722.31649167 459.67472194 -725.95068359 454.28759766 C-727.30245374 452.2839374 -728.65433922 450.28035495 -730.00634766 448.27685547 C-737.03016398 437.8683176 -744.04903097 427.457362 -751 417 C-752.86384066 414.20262978 -754.72884743 411.40603736 -756.59375 408.609375 C-757.57033132 407.1445438 -758.54689374 405.67969999 -759.5234375 404.21484375 C-760.25578613 403.1163208 -760.25578613 403.1163208 -761.00292969 401.99560547 C-765.00195312 395.99707031 -769.00097656 389.99853516 -773 384 C-773.68513672 384.06058594 -774.37027344 384.12117188 -775.07617188 384.18359375 C-778.21714582 384.45930382 -781.35855693 384.72968978 -784.5 385 C-786.11648438 385.14308594 -786.11648438 385.14308594 -787.765625 385.2890625 C-788.82265625 385.37929688 -789.8796875 385.46953125 -790.96875 385.5625 C-792.41411133 385.68818359 -792.41411133 385.68818359 -793.88867188 385.81640625 C-797.58652118 386.03460954 -801.2957184 386 -805 386 C-805 377.42 -805 368.84 -805 360 C-767.71 360 -730.42 360 -692 360 C-692 364.95 -692 369.9 -692 375 C-691.67 375.33 -691.34 375.66 -691 376 C-691 371.71 -691 367.42 -691 363 C-685.43739716 362.03259081 -679.6162214 361.08527392 -674 362 C-671.625 364.4375 -671.625 364.4375 -670 367 C-667.41614697 368.25025147 -666.24773966 368.05438188 -663.4375 367.4375 C-660.71197137 366.17904433 -660.71197137 366.17904433 -659.9375 363.0625 C-657.67811248 359.49121005 -657.18192789 359.44752086 -653.25 358.5 C-651.55041905 358.1472957 -649.85053909 357.79589844 -648.1484375 357.45556641 C-618.6822748 351.84279157 -618.6822748 351.84279157 -594.265625 335.9609375 C-592.46310481 333.16814388 -592.06424976 331.34098735 -592 328 C-594.29448883 319.68463448 -601.01059468 314.42178006 -608.1015625 310.1171875 C-618.40506745 304.64567108 -629.52708197 301.10225009 -641 299 C-641 298.34 -641 297.68 -641 297 C-641.639375 296.71125 -642.27875 296.4225 -642.9375 296.125 C-645 295 -645 295 -646 293 C-638.33330005 292.42438515 -630.68282463 291.99890811 -622.99609375 291.81640625 C-621.73361816 291.78409912 -620.47114258 291.75179199 -619.17041016 291.71850586 C-616.6820326 291.65819396 -614.19339416 291.60750687 -611.70458984 291.56860352 C-604.43961475 291.38559566 -597.3867302 290.73991289 -590.20153809 289.69046021 C-589.2842274 289.55757886 -588.3669167 289.42469752 -587.42180872 289.28778946 C-578.14397813 287.91644154 -568.93608942 286.23172741 -559.72460938 284.47607422 C-557.89553862 284.13110293 -556.06638986 283.78654498 -554.23717117 283.44235897 C-549.30413923 282.51298049 -544.3721968 281.57793716 -539.44043636 280.64183831 C-534.15586434 279.6398509 -528.8702629 278.64332167 -523.58477783 277.64616394 C-514.56194983 275.94320822 -505.53973521 274.23703623 -496.51794434 272.52859497 C-483.64054093 270.09008939 -470.76207551 267.65723233 -457.88328314 265.22607434 C-439.15263731 261.69023495 -420.4224263 258.15210131 -401.69266748 254.61156642 C-369.6749958 248.55922413 -337.65588906 242.51452439 -305.6333313 236.48808289 C-297.81183759 235.0160637 -289.99070217 233.54217203 -282.17009187 232.06546634 C-276.3362633 230.96403793 -270.5019297 229.86530375 -264.66738129 228.76769447 C-262.32732375 228.32701847 -259.98743906 227.88542341 -257.64774323 227.44283104 C-254.52050864 226.85139961 -251.39267252 226.26326452 -248.26464844 225.67602539 C-247.35650642 225.50343641 -246.44836441 225.33084743 -245.51270294 225.15302849 C-244.68913048 224.99912714 -243.86555801 224.84522579 -243.01702881 224.68666077 C-242.3078619 224.55295609 -241.59869499 224.41925142 -240.86803818 224.28149509 C-239 224 -239 224 -236 224 C-235.60868896 222.93881958 -235.60868896 222.93881958 -235.20947266 221.85620117 C-233.91873088 218.80808087 -232.37474547 216.12486901 -230.6484375 213.30078125 C-229.97039063 212.18767578 -229.29234375 211.07457031 -228.59375 209.92773438 C-227.85426098 208.72259837 -227.11467505 207.51752183 -226.375 206.3125 C-225.606477 205.05421587 -224.83825246 203.79574941 -224.0703125 202.53710938 C-218.41259258 193.27240553 -212.71794751 184.03025679 -207.02075195 174.78979492 C-202.17132158 166.91964161 -197.35679971 159.02880075 -192.5625 151.125 C-192.21043488 150.54461975 -191.85836975 149.9642395 -191.49563599 149.36627197 C-188.99594649 145.24487453 -186.49779706 141.12254456 -184 137 C-181.14689185 132.29102437 -178.29310054 127.58246471 -175.4375 122.875 C-175.08535431 122.29445862 -174.73320862 121.71391724 -174.37039185 121.11578369 C-168.63329019 111.66081405 -162.84631283 102.23713448 -157.04125977 92.82373047 C-151.95442524 84.56809985 -146.90582522 76.2898291 -141.875 68 C-141.52083008 67.41653809 -141.16666016 66.83307617 -140.80175781 66.23193359 C-139.78147693 64.55071304 -138.76182473 62.869111 -137.7421875 61.1875 C-137.10796875 60.14215088 -136.47375 59.09680176 -135.8203125 58.01977539 C-134.62861516 56.04283005 -133.44594427 54.0604086 -132.2734375 52.07202148 C-131.7475 51.18071533 -131.2215625 50.28940918 -130.6796875 49.37109375 C-130.22577637 48.59435303 -129.77186523 47.8176123 -129.30419922 47.01733398 C-125.72254345 41.4772326 -120.92902918 39.1827389 -114.6796875 37.4921875 C-110.43791243 36.71308596 -106.29298022 36.75338199 -102 37 C-101.73574219 36.28666504 -101.47148438 35.57333008 -101.19921875 34.83837891 C-99.95551939 31.89472077 -98.48286153 29.30887524 -96.8125 26.5859375 C-96.19632813 25.57789062 -95.58015625 24.56984375 -94.9453125 23.53125 C-94.30335938 22.4896875 -93.66140625 21.448125 -93 20.375 C-92.35804688 19.32570313 -91.71609375 18.27640625 -91.0546875 17.1953125 C-86.4015377 9.60230655 -86.4015377 9.60230655 -84 6 C-81.10684204 5.41145325 -81.10684204 5.41145325 -77.35400391 5.10864258 C-76.67073029 5.04968307 -75.98745667 4.99072357 -75.28347778 4.92997742 C-73.01540668 4.7378385 -70.74628457 4.56597432 -68.4765625 4.39453125 C-66.89382164 4.26538468 -65.31117047 4.13513454 -63.72860718 4.00382996 C-60.40188874 3.73070661 -57.07461165 3.46685039 -53.74658203 3.21020508 C-49.51156733 2.88347972 -45.27807399 2.5406233 -41.04485512 2.19147205 C-37.76949914 1.92206568 -34.49371533 1.65821494 -31.21775436 1.39627647 C-29.65900695 1.2716097 -28.10033196 1.1460334 -26.5417366 1.01947975 C-17.68384403 0.30629464 -8.89443785 -0.18569307 0 0 Z M-623 355 C-624.54586876 358.09173752 -624.29359521 360.59429552 -624 364 C-622.20171456 366.44053024 -620.81043868 367.63399544 -618.0625 368.875 C-615.193884 369.04885552 -613.52161246 368.35779132 -611 367 C-608.99034226 365.40383995 -608.99034226 365.40383995 -608 363 C-608 358.68594211 -608.31477815 356.72226087 -611.3125 353.5625 C-616.03095006 350.81921508 -618.82795262 352.06829103 -623 355 Z M-572 354 C-574.34168764 357.51253146 -574.49623677 358.86469356 -574 363 C-572.28250456 365.76026053 -571.00814483 367.51218798 -568.0625 368.9375 C-565.21462217 369.02379933 -563.50382122 368.34821143 -561 367 C-558.63187312 364.71353266 -558.0591066 363.30866779 -557.4375 360.0625 C-557.76107233 356.72285178 -557.76107233 356.72285178 -560.75 354.125 C-565.00794394 351.34095973 -567.78362722 351.32963057 -572 354 Z M-703 376 C-702.01 377.485 -702.01 377.485 -701 379 C-701 378.34 -701 377.68 -701 377 C-699.02 377 -697.04 377 -695 377 C-695 376.67 -695 376.34 -695 376 C-697.64 376 -700.28 376 -703 376 Z M-736 379 C-736 379.33 -736 379.66 -736 380 C-734.35 380 -732.7 380 -731 380 C-731 379.67 -731 379.34 -731 379 C-732.65 379 -734.3 379 -736 379 Z M-722 379 C-721 383 -721 383 -721 383 Z M-746 380 C-746 380.33 -746 380.66 -746 381 C-744.35 381 -742.7 381 -741 381 C-741 380.67 -741 380.34 -741 380 C-742.65 380 -744.3 380 -746 380 Z M-755 381 C-754.67 381.66 -754.34 382.32 -754 383 C-753.01 382.34 -752.02 381.68 -751 381 C-752.32 381 -753.64 381 -755 381 Z M-721 384 C-720 387 -720 387 -720 387 Z M-720 389 C-719 392 -719 392 -719 392 Z M-719 393 C-718 397 -718 397 -718 397 Z M-718 398 C-717 401 -717 401 -717 401 Z M-692 399 C-691 401 -691 401 -691 401 Z M-717 403 C-716 406 -716 406 -716 406 Z M-716 407 C-715 411 -715 411 -715 411 Z M-715 412 C-714 416 -714 416 -714 416 Z M-714 417 C-713 420 -713 420 -713 420 Z M-713 422 C-712 425 -712 425 -712 425 Z M-712 426 C-711 430 -711 430 -711 430 Z M-679 427 C-678 429 -678 429 -678 429 Z M-711 431 C-710 434 -710 434 -710 434 Z M-710 436 C-709 439 -709 439 -709 439 Z M-716 442 C-712.5988624 448.65019181 -708.82069231 454.97290254 -704.6875 461.1875 C-704.02065186 462.19502319 -704.02065186 462.19502319 -703.34033203 463.22290039 C-702.25597618 464.83521585 -701.13178484 466.42061663 -700 468 C-699.67 468 -699.34 468 -699 468 C-699 461.07 -699 454.14 -699 447 C-701.64 447.33 -704.28 447.66 -707 448 C-707.33 445.36 -707.66 442.72 -708 440 C-710.63576683 440 -713.48513411 441.26840265 -716 442 Z M-715 481.625 C-717.12966569 486.68295602 -718.12976145 491.71509578 -716.28125 497.08984375 C-713.58785671 502.92190905 -709.95072442 506.4634502 -704 509 C-697.40817846 509.97239603 -692.11063743 509.43431225 -686.65625 505.5 C-682.2163425 501.47895169 -680.18686607 497.20501961 -679.6875 491.3125 C-679.8155165 485.49841735 -681.71513351 481.22798185 -685.8828125 477.1640625 C-690.79314561 473.41531356 -695.10781604 472.05466356 -701.28125 472.41015625 C-707.1031377 473.67323821 -711.43234045 476.94244684 -715 481.625 Z " fill="currentColor" transform="translate(1408,0)"/>
<path d="M0 0 C2.625 0.375 2.625 0.375 5 1 C5.02474609 7.17472035 5.04288192 13.34941172 5.05493164 19.52416992 C5.05995581 21.62410993 5.06677625 23.72404646 5.07543945 25.82397461 C5.0875889 28.84489809 5.09324753 31.86577526 5.09765625 34.88671875 C5.10281754 35.82335861 5.10797882 36.75999847 5.11329651 37.72502136 C5.11365846 41.94460038 5.08716646 45.88832892 4 50 C7.3 50 10.6 50 14 50 C10.71536341 52.18975773 7.79303725 52.99806563 4 54 C4 55.32 4 56.64 4 58 C5.65 58 7.3 58 9 58 C9.64795862 61.04121788 10.29298156 64.08305136 10.9375 67.125 C11.11990234 67.9809375 11.30230469 68.836875 11.49023438 69.71875 C12.42420343 74.13387646 13.305298 78.53928192 14 83 C12.02 83 10.04 83 8 83 C10.64354525 85.83236991 12.43688534 87.21844267 16 89 C15.34 91.97 14.68 94.94 14 98 C12.35 98 10.7 98 9 98 C9.66 102.95 10.32 107.9 11 113 C12.32 112.34 13.64 111.68 15 111 C15.33 110.01 15.66 109.02 16 108 C19.875 109.875 19.875 109.875 21 111 C22.54193971 111.21691471 24.09270589 111.37167185 25.64453125 111.5 C26.63388672 111.5825 27.62324219 111.665 28.64257812 111.75 C29.68865234 111.8325 30.73472656 111.915 31.8125 112 C32.78509766 112.0825 33.75769531 112.165 34.75976562 112.25 C52.54982454 113.69763353 70.32992493 114.16943628 88.171875 114.31640625 C90.3180576 114.33704642 92.46423679 114.35804433 94.6104126 114.37937927 C100.18651516 114.43387245 105.76264981 114.48359408 111.33880615 114.53222656 C117.05793013 114.58298227 122.77700907 114.63838242 128.49609375 114.69335938 C139.66402378 114.80004723 150.83199337 114.90168027 162 115 C162 120.61 162 126.22 162 132 C173.22 131.01 184.44 130.02 196 129 C198.98353516 133.53814453 198.98353516 133.53814453 202.02734375 138.16796875 C203.98310754 141.14046332 205.93940499 144.11260602 207.89575195 147.0847168 C209.24136069 149.129598 210.5864259 151.17483699 211.9309082 153.22045898 C222.07262264 168.65798706 222.07262264 168.65798706 232.56079102 183.8605957 C234 186 234 186 234 187 C221.6584586 187.90405343 209.32313225 188.30959205 196.95444298 188.63075256 C193.5035451 188.72058985 190.05277168 188.81432132 186.602005 188.90905762 C176.80423105 189.17737172 167.00627783 189.43881682 157.20825195 189.69775391 C151.18563525 189.85718139 145.16315108 190.02101081 139.14072609 190.18751526 C136.85177077 190.24985847 134.56276688 190.31044423 132.27371788 190.36924744 C129.09079932 190.45103981 125.90807756 190.53837087 122.7253418 190.62695312 C121.3064843 190.66128197 121.3064843 190.66128197 119.85896301 190.69630432 C118.9944754 190.72147629 118.12998779 190.74664825 117.23930359 190.77258301 C116.48854396 190.79248543 115.73778433 190.81238785 114.96427441 190.83289337 C112.78655158 190.9407757 112.78655158 190.9407757 110 192 C110.61488281 192.67546875 111.22976563 193.3509375 111.86328125 194.046875 C112.67152344 194.93890625 113.47976563 195.8309375 114.3125 196.75 C115.51326172 198.07257813 115.51326172 198.07257813 116.73828125 199.421875 C122 205.41968912 122 205.41968912 122 208 C118.13148434 208.72810466 114.853538 208.88441856 111 208 C106.2981222 204.20458685 102.5048117 199.53123526 99.41906166 194.34071255 C96.80031019 191.80677779 96.41792508 191.64710987 92.99577904 191.49291325 C91.3644092 191.52081871 89.73336699 191.57641993 88.10360718 191.65406799 C86.77644497 191.68664478 86.77644497 191.68664478 85.4224714 191.71987969 C83.550514 191.76825045 81.67881355 191.82765966 79.80752897 191.89736104 C77.13781018 191.99496187 74.46974221 192.06062005 71.79878616 192.11253166 C66.31232371 192.22260073 60.82756715 192.37764744 55.34228516 192.53491211 C53.25683727 192.59263458 51.17138274 192.65011731 49.08592224 192.7073822 C43.48449485 192.86191064 37.88316981 193.01988749 32.28186083 193.17864299 C26.37858016 193.34546003 20.47521882 193.50937679 14.5718689 193.67372131 C4.66178971 193.95005445 -5.24822519 194.22860572 -15.15820312 194.50854492 C-26.559748 194.830595 -37.96138221 195.14931362 -49.3630718 195.466196 C-60.39954558 195.77299098 -71.43595652 196.08199235 -82.47233963 196.39203072 C-87.13758133 196.52306189 -91.80284216 196.65337755 -96.46812057 196.78309441 C-101.97919439 196.93644135 -107.49020965 197.09175439 -113.00118828 197.24848366 C-115.00441732 197.3051623 -117.00766415 197.36121665 -119.01093102 197.41654205 C-132.6820013 197.79467096 -146.3397958 198.33604405 -160 199 C-159.04943244 200.2511034 -158.09881567 201.50216941 -157.1481781 202.7532196 C-156.61880866 203.44991099 -156.08943922 204.14660238 -155.54402828 204.86440563 C-154.42842077 206.33134267 -153.31057922 207.79658111 -152.19165039 209.26098633 C-151.70688232 209.90318115 -151.22211426 210.54537598 -150.72265625 211.20703125 C-150.22515869 211.8616333 -149.72766113 212.51623535 -149.21508789 213.19067383 C-148 215 -148 215 -147 218 C-161.04888333 219.3660979 -161.04888333 219.3660979 -165.41015625 216.3125 C-167.70133671 213.30630422 -169.49780264 210.17858311 -170.98120117 206.69726562 C-172.40376285 203.89689951 -173.61624806 202.06248939 -176 200 C-181.02840515 198.79160191 -185.94513252 199.11577018 -191.0625 199.375 C-192.56499193 199.41757608 -194.0676095 199.45590622 -195.5703125 199.49023438 C-198.743759 199.57058113 -201.91461192 199.67803186 -205.08642578 199.80761719 C-210.00329007 200.00719606 -214.92042806 200.13973796 -219.83984375 200.2578125 C-224.55527182 200.37239195 -229.2702674 200.48879342 -233.98461914 200.64208984 C-244.32656738 200.97507237 -254.65291813 201.05474646 -265 201 C-265.33 202.32 -265.66 203.64 -266 205 C-266.75925781 205.15855469 -267.51851562 205.31710937 -268.30078125 205.48046875 C-274.51768014 206.745129 -274.51768014 206.745129 -279.1875 210.6875 C-279.455625 211.450625 -279.72375 212.21375 -280 213 C-278.845 213.061875 -277.69 213.12375 -276.5 213.1875 C-270.68865138 213.94863239 -266.07498006 216.36518621 -262.421875 221.00390625 C-258.01236576 227.88426118 -257.15848482 233.8719534 -258 242 C-260.05654987 249.19290857 -263.6488781 253.16647726 -270.01171875 256.94140625 C-276.13382109 260.20091457 -283.79641024 260.09372398 -290.4921875 258.3515625 C-296.95326711 255.41013715 -301.33821443 250.29504789 -303.9375 243.75 C-305.66223967 237.68759169 -305.4470805 231.60217463 -303.08984375 225.734375 C-300.45085556 221.04681632 -297.09831863 218.26511707 -292.57421875 215.421875 C-292.05472656 214.95265625 -291.53523437 214.4834375 -291 214 C-291 212.68 -291 211.36 -291 210 C-297.27 210.99 -303.54 211.98 -310 213 C-310 209.37 -310 205.74 -310 202 C-311.29550781 202.15339844 -312.59101563 202.30679688 -313.92578125 202.46484375 C-321.66050316 203.23411008 -329.42175128 203.37188815 -337.1875 203.5625 C-337.99624573 203.58268188 -338.80499146 203.60286377 -339.63824463 203.62365723 C-345.42519852 203.76538086 -351.2124404 203.88610498 -357 204 C-357.73732361 204.01544861 -358.47464722 204.03089722 -359.23431396 204.04681396 C-418.8820264 205.28350184 -418.8820264 205.28350184 -437 192 C-439 190 -439 190 -439.375 186.6875 C-438.8776748 181.79713557 -437.01172919 179.64991736 -433.22851562 176.54711914 C-431.03099443 174.89081391 -428.80369203 173.28421244 -426.5625 171.6875 C-424.84378742 170.44445507 -423.12638663 169.19959478 -421.41015625 167.953125 C-420.5195752 167.30666016 -419.62899414 166.66019531 -418.71142578 165.99414062 C-414.25195104 162.71438287 -409.88264841 159.31877298 -405.5 155.9375 C-397.24237887 149.59353767 -388.78516996 143.63015268 -380.1484375 137.81640625 C-376.86689322 135.60499453 -373.66743451 133.3106394 -370.5 130.9375 C-359.64747548 122.98233156 -348.21512128 116.01320251 -336.1875 110 C-324.70019648 104.17736352 -316.03399481 96.16199769 -307.125 87 C-297.48504515 77.09818709 -285.95669012 68.04611453 -273 63 C-272.09643768 62.62786629 -272.09643768 62.62786629 -271.17462158 62.24821472 C-263.27995738 59.41692972 -255.30564012 59.52417717 -247.03170395 59.45441055 C-244.15088928 59.42873452 -241.27090615 59.38376135 -238.39041138 59.33395386 C-234.021275 59.25856772 -229.65210197 59.18799488 -225.28283691 59.1204834 C-204.08546051 58.78028005 -182.89367309 58.26065315 -161.70534897 57.55553055 C-153.96864406 57.3002479 -146.23387697 57.08111217 -138.49414062 56.94189453 C-131.59799125 56.81774932 -124.70719687 56.62775889 -117.81503117 56.3612088 C-114.21079954 56.22393485 -110.61216207 56.1163095 -107.00527573 56.08948135 C-93.5207051 55.97073027 -82.4354654 55.63898773 -72.15843391 45.98624992 C-68.52964044 42.16740026 -65.15022236 38.22221154 -62 34 C-60.51515588 34.39595843 -59.0371169 34.81750706 -57.5625 35.25 C-56.73878906 35.48203125 -55.91507812 35.7140625 -55.06640625 35.953125 C-53 37 -53 37 -52.11157227 38.93457031 C-51.92806853 42.33159787 -53.91298296 44.13370105 -55.9375 46.75 C-56.68902344 47.73484375 -57.44054687 48.7196875 -58.21484375 49.734375 C-58.80394531 50.48203125 -59.39304687 51.2296875 -60 52 C-59.25129639 51.96970703 -58.50259277 51.93941406 -57.73120117 51.90820312 C-54.21677669 51.76826127 -50.70215081 51.63413314 -47.1875 51.5 C-45.4230957 51.42845703 -45.4230957 51.42845703 -43.62304688 51.35546875 C-33.41195642 50.97221066 -23.21698117 50.95041972 -13 51 C-12.66005005 49.35970825 -12.66005005 49.35970825 -12.31323242 47.6862793 C-11.46120683 43.57976397 -10.60465697 39.4742027 -9.74682617 35.36889648 C-9.37810271 33.6012449 -9.01056188 31.83334615 -8.64428711 30.06518555 C-3.04460146 3.04460146 -3.04460146 3.04460146 0 0 Z M-14 54 C-14 55.65 -14 57.3 -14 59 C-13.67 59 -13.34 59 -13 59 C-13 57.35 -13 55.7 -13 54 C-13.33 54 -13.66 54 -14 54 Z M-15 60 C-15 61.65 -15 63.3 -15 65 C-14.67 65 -14.34 65 -14 65 C-14 63.35 -14 61.7 -14 60 C-14.33 60 -14.66 60 -15 60 Z M2 66 C1.67 66.66 1.34 67.32 1 68 C1.99 69.485 1.99 69.485 3 71 C3 69.35 3 67.7 3 66 C2.67 66 2.34 66 2 66 Z M-21 70 C-20 72 -20 72 -20 72 Z M3 71 C4 75 4 75 4 75 Z M4 75 C5 78 5 78 5 78 Z M-12 78 C-11 81 -11 81 -11 81 Z M5 78 C6 80 6 80 6 80 Z M6 81 C7 83 7 83 7 83 Z M-305 91 C-307.11433914 92.99346252 -309.27674123 94.93211095 -311.4375 96.875 C-314.34715311 99.52839347 -317.24742821 102.18211295 -320 105 C-313.33097969 106.27704644 -306.54480402 107.3126721 -300.59082031 103.42822266 C-293.35212372 97.29730677 -287.00662371 90.05693173 -282 82 C-293.12081993 80.58810907 -297.52948722 83.03830671 -305 91 Z M-285 93 C-286.18041171 94.1610728 -287.37049803 95.31257291 -288.578125 96.4453125 C-289.45984375 97.32960938 -290.3415625 98.21390625 -291.25 99.125 C-292.16265625 100.03507812 -293.0753125 100.94515625 -294.015625 101.8828125 C-296.11397526 103.6379764 -296.11397526 103.6379764 -296 105 C-277.19 105 -258.38 105 -239 105 C-239 97.41 -239 89.82 -239 82 C-243.63022797 81.74477028 -248.23547348 81.5271176 -252.8671875 81.39575195 C-254.4350912 81.34097171 -256.00244738 81.26630404 -257.56835938 81.17016602 C-270.6236984 80.38968379 -276.48464812 83.20122164 -285 93 Z M-11 82 C-10 84 -10 84 -10 84 Z M-10 85 C-9 87 -9 87 -9 87 Z M-9 88 C-8 90 -8 90 -8 90 Z M-8 91 C-7 93 -7 93 -7 93 Z M-7 93 C-6 96 -6 96 -6 96 Z M-6 96 C-5 98 -5 98 -5 98 Z M-145 100 C-146.54586876 103.09173752 -146.29359521 105.59429552 -146 109 C-144.07017583 111.71604883 -142.65799225 112.74692606 -139.5625 113.9375 C-136.18120249 114.01997067 -134.66913256 113.0198841 -132 111 C-129.67122638 108.12405164 -129.67122638 108.12405164 -130.0625 104.5625 C-130.71994498 100.90386053 -130.71994498 100.90386053 -133.3125 98.5625 C-138.03095006 95.81921508 -140.82795262 97.06829103 -145 100 Z M-104.8125 98.5 C-107.67311337 101.76927242 -108.1519185 103.67032286 -108 108 C-105.88667491 110.77751297 -104.11820976 112.44089512 -101 114 C-98.02776214 114 -96.38118619 112.69189545 -94 111 C-91.65186266 109.06832602 -91.65186266 109.06832602 -91.625 105.625 C-91.7063686 102.02421062 -91.7063686 102.02421062 -93.625 99.625 C-97.64967024 96.87127826 -100.42273262 96.15879073 -104.8125 98.5 Z M-61.8125 98.5 C-64.65965128 101.75388717 -65.07548906 103.69712377 -65 108 C-63.20121842 111.18245972 -61.94890419 112.61070597 -58.5625 114 C-55.23121857 114 -53.6617637 112.9423681 -51 111 C-48.65186266 109.06832602 -48.65186266 109.06832602 -48.625 105.625 C-48.7063686 102.02421062 -48.7063686 102.02421062 -50.625 99.625 C-54.64967024 96.87127826 -57.42273262 96.15879073 -61.8125 98.5 Z M-31 100 C-32.54586876 103.09173752 -32.29359521 105.59429552 -32 109 C-30.07017583 111.71604883 -28.65799225 112.74692606 -25.5625 113.9375 C-22.18120249 114.01997067 -20.66913256 113.0198841 -18 111 C-15.67122638 108.12405164 -15.67122638 108.12405164 -16.0625 104.5625 C-16.71994498 100.90386053 -16.71994498 100.90386053 -19.3125 98.5625 C-24.03095006 95.81921508 -26.82795262 97.06829103 -31 100 Z M-5 99 C-4 101 -4 101 -4 101 Z M-4 102 C-3 104 -3 104 -3 104 Z M-3 104 C-2 106 -2 106 -2 106 Z M-2 107 C-1 109 -1 109 -1 109 Z M-1 110 C0 112 0 112 0 112 Z M0 112 C1 114 1 114 1 114 Z M1 115 C2 117 2 117 2 117 Z M2 117 C3 119 3 119 3 119 Z M10 121 C9.67 121.66 9.34 122.32 9 123 C9.66 123 10.32 123 11 123 C10.67 122.34 10.34 121.68 10 121 Z M-295.25 224.3125 C-298.77859334 228.73944913 -300.02991868 232.14504179 -299.9375 237.875 C-299.03752995 243.27482027 -296.50829369 247.67460272 -292.5 251.390625 C-287.4855629 254.81394263 -281.86103598 254.85455458 -276 254 C-270.17315301 251.99333262 -266.62376004 248.00395606 -263.75 242.6875 C-261.96082626 236.27629409 -262.61726218 231.48081727 -265.79296875 225.7578125 C-268.36549687 222.01141232 -271.88449856 219.75844152 -276 218 C-283.96597404 216.98782178 -289.72047885 218.3044626 -295.25 224.3125 Z " fill="currentColor" transform="translate(439,255)"/>
<path d="M0 0 C1.22348145 -0.009104 2.44696289 -0.01820801 3.70751953 -0.02758789 C13.67513284 0.32559526 23.44600285 2.57535798 31.2421875 9.09765625 C31.5721875 10.08765625 31.9021875 11.07765625 32.2421875 12.09765625 C32.79003906 12.11183594 33.33789062 12.12601562 33.90234375 12.140625 C49.86950194 13.10125078 66.52488524 20.1218084 77.2421875 32.09765625 C79.10089617 35.33711994 80.2113921 37.35856659 80.3671875 41.09765625 C77.74585857 48.08786672 70.53593775 51.47215924 64.09765625 54.52734375 C39.16518096 65.10801674 12.05653643 68.75489479 -14.7578125 70.09765625 C-14.7578125 69.10765625 -14.7578125 68.11765625 -14.7578125 67.09765625 C-54.0278125 67.09765625 -93.2978125 67.09765625 -133.7578125 67.09765625 C-133.7578125 70.06765625 -133.7578125 73.03765625 -133.7578125 76.09765625 C-137.44678383 77.32731336 -140.8554567 77.24519605 -144.69702148 77.24291992 C-145.50770081 77.24627853 -146.31838013 77.24963715 -147.15362549 77.25309753 C-149.85373454 77.26264153 -152.55378132 77.26455514 -155.25390625 77.265625 C-157.15877812 77.26884506 -159.06364975 77.27220968 -160.96852112 77.27571106 C-164.9895179 77.28171768 -169.01049319 77.28355037 -173.03149414 77.28295898 C-177.08167107 77.28287901 -181.13173181 77.28960494 -185.18188477 77.3034668 C-210.7777751 77.38983202 -236.22358861 76.95111271 -261.7578125 75.09765625 C-263.3953096 75.00585587 -263.3953096 75.00585587 -265.06588745 74.91220093 C-266.05017731 74.84731476 -267.03446716 74.78242859 -268.04858398 74.71557617 C-268.89090073 74.66632492 -269.73321747 74.61707367 -270.60105896 74.56632996 C-273.21524292 73.99825425 -274.16009112 73.17656623 -275.8828125 71.16015625 C-279.00286671 66.06406771 -279.1427965 62.9166562 -277.7578125 57.09765625 C-275.6953125 54.53515625 -275.6953125 54.53515625 -273.7578125 53.09765625 C-275.0778125 52.43765625 -276.3978125 51.77765625 -277.7578125 51.09765625 C-277.7578125 50.10765625 -277.7578125 49.11765625 -277.7578125 48.09765625 C-278.34321798 46.2306106 -278.97456085 44.37778041 -279.6328125 42.53515625 C-282.33686891 34.59558638 -283.880677 27.50363561 -283.7578125 19.09765625 C-254.14539065 6.81721072 -219.86560446 0.15484996 -187.7578125 1.09765625 C-187.69835449 1.65412842 -187.63889648 2.21060059 -187.57763672 2.78393555 C-186.39373729 13.44666144 -184.86383287 23.83734676 -181.8828125 34.16015625 C-181.65062012 34.96606201 -181.41842773 35.77196777 -181.17919922 36.60229492 C-179.07530748 43.57258588 -176.42809291 50.32786593 -173.7578125 57.09765625 C-146.78590483 58.94576625 -119.86235743 60.40616171 -92.8203125 60.41015625 C-91.76444946 60.41337891 -90.70858643 60.41660156 -89.62072754 60.41992188 C-54.38855327 61.57906154 -54.38855327 61.57906154 -21.7578125 51.09765625 C-20.21738561 48.77807646 -20.21738561 48.77807646 -19.7578125 46.09765625 C-26.27621843 30.92701644 -47.78269924 22.65116991 -61.953125 16.94140625 C-67.25749881 14.86699799 -72.63085272 12.97312471 -78.06396484 11.26293945 C-83.01001813 9.63294806 -86.70283728 7.39101048 -90.7578125 4.09765625 C-90.7578125 3.43765625 -90.7578125 2.77765625 -90.7578125 2.09765625 C-80.34272999 1.83452947 -69.92759494 1.57359667 -59.51239014 1.31535339 C-54.67457421 1.19533395 -49.83677847 1.0745998 -44.99902344 0.95214844 C-40.31764917 0.83368303 -35.63622906 0.71720447 -30.95477295 0.60202026 C-29.18168421 0.55806121 -27.40861214 0.51342369 -25.63555908 0.4680481 C-17.09138989 0.24980947 -8.54699791 0.05440302 0 0 Z " fill="currentColor" transform="translate(733.7578125,289.90234375)"/>
<path d="M0 0 C2.60174503 0.01641636 5.20200582 -0.00014086 7.80371094 -0.01904297 C9.47819349 -0.01706545 11.15267514 -0.013232 12.82714844 -0.00732422 C13.97864883 -0.01643326 13.97864883 -0.01643326 15.15341187 -0.02572632 C22.79276541 0.07473378 26.88179386 3.81520507 32.61621094 8.39111328 C33.23036865 8.8709668 33.84452637 9.35082031 34.47729492 9.84521484 C37.55279296 12.2559844 40.55943882 14.7023572 43.46777344 17.31298828 C52.36357417 25.11402405 61.42082614 28.2134737 72.64697266 31.58935547 C87.99349988 36.44933574 105.28671045 45.10759749 115.24121094 58.07861328 C116.17871094 60.39111328 116.17871094 60.39111328 116.01855469 62.40673828 C115.17871094 64.39111328 115.17871094 64.39111328 113.27246094 65.55126953 C96.16880623 71.50148676 78.34318646 72.54268994 60.36230469 72.55908203 C58.94875028 72.56303508 57.53519639 72.56717992 56.12164307 72.57150269 C52.38671567 72.58074864 48.65183371 72.58190434 44.91689682 72.57979202 C42.60862839 72.5786094 40.30036451 72.57914541 37.99209595 72.57980347 C16.0145021 72.57845589 -5.91783181 72.39363739 -27.82128906 70.39111328 C-28.95691284 70.32935913 -28.95691284 70.32935913 -30.11547852 70.26635742 C-32.01660156 70.11767578 -32.01660156 70.11767578 -34.82128906 69.39111328 C-44.05315716 57.90307792 -46.99779282 34.06122252 -47.00878906 19.76611328 C-47.02103516 18.92048828 -47.03328125 18.07486328 -47.04589844 17.20361328 C-47.04783203 16.38634766 -47.04976562 15.56908203 -47.05175781 14.72705078 C-47.0558667 13.99019043 -47.05997559 13.25333008 -47.06420898 12.49414062 C-46.75520211 9.8189796 -46.49353307 8.54840424 -44.82128906 6.39111328 C-39.3823547 3.89013828 -33.989604 2.62813528 -28.09472656 1.72705078 C-26.86875259 1.53784561 -26.86875259 1.53784561 -25.61801147 1.34481812 C-17.0850029 0.13216382 -8.6071996 -0.06472827 0 0 Z " fill="currentColor" transform="translate(595.8212890625,275.60888671875)"/>
<path d="M0 0 C5.13308791 2.61320839 8.1797908 5.53937241 10 11 C10.3684431 16.61875724 10.19190228 20.15711379 7 25 C1.87891321 29.62146856 -1.380257 30.42489834 -8.16796875 30.3359375 C-12.51969969 29.81973218 -15.15786411 28.30911573 -18 25 C-20.84487818 20.67999981 -21.2767359 16.88013615 -20.5 11.8125 C-19.38224834 7.32079425 -17.74503276 4.85335829 -14 2 C-9.48630516 -0.67407972 -5.12043647 -0.66331088 0 0 Z M-14 10 C-15.41000664 12.82001327 -15.24548451 14.87007255 -15 18 C-13.75234694 20.74483673 -12.64684565 22.47294058 -10.3125 24.375 C-6.72583142 25.34436989 -3.53852587 25.12622487 0 24 C2.55386855 21.64258287 3.69912523 19.78227439 4.9375 16.5625 C5.02563557 12.94894155 3.96152595 11.00767312 2 8 C-0.50582899 6.02171396 -2.32251441 5.1389714 -5.4375 4.5 C-9.32747126 5.25901878 -11.14347376 7.27331586 -14 10 Z " fill="currentColor" transform="translate(163,476)"/>
<path d="M0 0 C4.30278235 1.72111294 7.98533336 4.76424595 10 9 C10.89812481 14.64424988 10.77100145 19.37233026 8.3125 24.5625 C4.21380149 28.88274978 1.51482342 30.18747015 -4.4375 30.4375 C-9.40614281 30.28389948 -12.26068485 29.46570672 -16 26 C-19.93626932 21.64938655 -20.63883919 18.08222994 -20.3828125 12.3984375 C-19.59535241 7.46475896 -16.95907713 4.86773645 -13.375 1.625 C-8.80369453 -0.57599893 -4.9882042 -0.67792708 0 0 Z M-13 9 C-14.95317335 11.54761741 -15.01249061 12.70647055 -14.875 15.9375 C-13.82270802 19.62052191 -12.86162975 21.43187073 -10 24 C-7.25487403 25.05941962 -4.92056536 25.39800411 -2 25 C1.0774095 23.31238834 3.40946883 21.18106234 5 18 C5.56169931 13.8808717 5.16628763 12.26706802 2.9375 8.6875 C-2.74833284 3.48556783 -7.33150727 4.12245975 -13 9 Z " fill="currentColor" transform="translate(714,476)"/>
<path d="M0 0 C4.36787565 1.18296632 4.36787565 1.18296632 6 3.8125 C6.53852618 7.42831862 6.42236225 9.15361489 4.4375 12.25 C2 13.8125 2 13.8125 -1.5625 13.875 C-5 12.8125 -5 12.8125 -7.0625 10.625 C-8.29306864 6.93329408 -7.68813585 5.26550514 -6 1.8125 C-3 -0.1875 -3 -0.1875 0 0 Z " fill="currentColor" transform="translate(710,484.1875)"/>
<path d="M0 0 C2 2 2 2 2.375 5.9375 C2.28635216 8.80551846 2.21085143 9.72167611 0.4375 12.0625 C-3.0507008 13.40411569 -5.42525344 12.92678615 -9 12 C-11.31282587 8.53076119 -11.42478586 7.07794425 -11 3 C-7.75417192 -1.27859156 -5.03165369 -1.15308731 0 0 Z " fill="currentColor" transform="translate(162,485)"/>
</svg>
