<svg width="19" height="20" viewBox="0 0 19 20" fill="none"
    xmlns="http://www.w3.org/2000/svg">
    <path d="M5.08255 6.95324C3.56822 8.77316 2.87848 10.7634 3.24886 13.0946C3.41004 14.1091 2.77126 14.896 2.15527 15.6236C1.76305 16.0869 1.36411 16.5905 0.715738 16.6934C0.633682 16.6194 0.56608 16.5861 0.567354 16.5557C0.662654 14.2855 -0.111203 12.0878 0.0136779 9.80954C0.0743073 8.70339 0.245138 7.63827 0.652479 6.61088C0.792197 6.2585 0.954306 5.91042 1.52633 5.92131C1.21769 5.34086 1.49422 4.91241 1.90074 4.59665C2.49931 4.13172 2.77879 3.23041 3.79316 3.29315C4.02345 3.30739 3.9791 2.7779 4.23973 2.57151C5.01028 1.96131 5.8327 1.43952 6.72261 1.02089C7.19951 0.796555 7.43434 1.01783 7.5196 1.47183C7.5543 1.65656 7.56386 1.84591 7.67636 2.10538C7.37262 0.436768 8.60663 0.428492 9.6184 0.220689C10.3772 0.0648434 11.1458 -0.092094 11.9044 0.065381C12.108 0.278754 11.8384 0.517729 12.0307 0.761321C12.468 -0.113944 13.2 -0.0109309 13.9796 0.118245C15.3975 0.353198 16.7992 0.626044 18.0934 1.27946C18.4257 1.44726 18.7848 1.58308 19 1.91732C18.9221 2.23989 18.616 2.21472 18.4015 2.29637C16.8087 2.90267 15.2944 3.61159 14.3356 5.11264C13.9954 5.64532 13.5402 5.5067 13.071 5.31824C10.5437 4.30306 8.19502 4.75879 5.97737 6.18977C5.66487 6.39142 5.4033 6.67029 5.08255 6.95324Z" fill="url(#paint0_linear_2345_3961)"/>
    <path d="M18.3785 10.2889C18.1791 11.4957 17.7251 12.433 16.3406 12.4919C15.7997 12.5149 15.7093 12.8339 15.7037 13.2962C15.6943 14.0718 15.7312 14.8395 15.9312 15.5892C16.0494 16.0327 15.9406 16.2842 15.4507 16.2621C15.0055 16.242 14.8288 16.4726 14.7438 16.8661C14.5554 17.7383 14.2068 18.5785 14.1973 19.4858C14.1927 19.93 13.9599 20.0814 13.5663 19.9594C11.9595 19.4613 10.5174 18.6645 9.29446 17.5161C8.9173 17.1619 8.83542 16.655 8.79383 16.1426C8.75469 15.6602 8.7743 15.0877 8.11624 14.9596C7.5031 14.8402 6.9825 14.8755 6.56298 15.5163C5.78671 16.7021 4.60069 17.2035 3.19096 17.2269C3.07441 16.8356 3.34833 16.7168 3.49813 16.5376C4.41828 15.4365 5.15481 14.3283 5.25641 12.7726C5.39373 10.6698 6.62417 9.03531 8.55361 8.18796C10.4567 7.35217 12.4391 7.44032 14.2228 8.69685C14.6494 8.99735 15.041 9.35701 15.1828 9.98584C13.6176 10.5705 11.991 10.9264 10.3153 11.352C10.548 11.7359 10.8064 11.6558 11.0749 11.6093C13.1546 11.2489 15.1653 10.5774 17.2569 10.2708C17.6233 10.2171 17.9846 10.0668 18.3785 10.2889ZM7.02246 12.8288C6.83505 13.2021 7.05004 13.4287 7.32155 13.6369C7.52656 13.7941 7.73448 13.7803 7.94422 13.6526C8.34499 13.4085 8.51889 13.0454 8.22379 12.6661C7.85719 12.195 7.44352 12.3886 7.02246 12.8288Z" fill="white"/>
    <path d="M5.87095 7.13456C8.03528 5.3301 10.4043 5.05023 12.9694 5.9679C13.3859 6.11689 13.7076 6.32426 13.5263 6.84304C13.3465 7.35749 13.0313 7.52528 12.4763 7.34172C11.0199 6.86003 9.56242 6.88698 8.11562 7.42022C6.43241 8.0406 5.34301 9.16385 4.97245 10.9363C4.80775 11.7242 4.59046 12.5013 4.38647 13.326C3.12959 12.0633 3.84413 9.17813 5.87095 7.13456Z" fill="#4DA6FF"/>
    <defs>
        <linearGradient id="paint0_linear_2345_3961" x1="5.56011" y1="2.5" x2="8.04569" y2="7.02294" gradientUnits="userSpaceOnUse">
            <stop stop-color="#94CAFF"/>
            <stop offset="1" stop-color="#4DA6FF"/>
        </linearGradient>
    </defs>
</svg>
