<svg xmlns="http://www.w3.org/2000/svg" width="25" height="25" viewBox="0 0 25 25" fill="none">
<path d="M17.7083 0H7.29167L0 7.04225V17.6056L7.29167 25H17.7083L25 17.6056V7.04225L17.7083 0Z" fill="#1A1A1A"/>
<path d="M5.52344 13.4883C5.52344 13.3997 5.51042 13.3203 5.48438 13.25C5.45833 13.1771 5.41016 13.1094 5.33984 13.0469C5.26953 12.9844 5.16797 12.9219 5.03516 12.8594C4.90495 12.7943 4.73307 12.7266 4.51953 12.6562C4.26953 12.5729 4.02865 12.4792 3.79688 12.375C3.5651 12.2682 3.35807 12.1445 3.17578 12.0039C2.99349 11.8607 2.84896 11.694 2.74219 11.5039C2.63542 11.3112 2.58203 11.0872 2.58203 10.832C2.58203 10.5872 2.63672 10.3672 2.74609 10.1719C2.85547 9.97396 3.00781 9.80599 3.20312 9.66797C3.40104 9.52734 3.63281 9.42057 3.89844 9.34766C4.16406 9.27214 4.45443 9.23438 4.76953 9.23438C5.1862 9.23438 5.55339 9.30729 5.87109 9.45312C6.19141 9.59635 6.44141 9.80078 6.62109 10.0664C6.80339 10.3294 6.89453 10.6406 6.89453 11H5.53125C5.53125 10.8568 5.5013 10.7305 5.44141 10.6211C5.38411 10.5117 5.29688 10.4258 5.17969 10.3633C5.0625 10.3008 4.91536 10.2695 4.73828 10.2695C4.56641 10.2695 4.42188 10.2956 4.30469 10.3477C4.1875 10.3997 4.09896 10.4701 4.03906 10.5586C3.97917 10.6445 3.94922 10.7396 3.94922 10.8438C3.94922 10.9297 3.97266 11.0078 4.01953 11.0781C4.06901 11.1458 4.13802 11.2096 4.22656 11.2695C4.31771 11.3294 4.42708 11.3867 4.55469 11.4414C4.6849 11.4961 4.83073 11.5495 4.99219 11.6016C5.29427 11.6979 5.5625 11.806 5.79688 11.9258C6.03385 12.043 6.23307 12.1771 6.39453 12.3281C6.55859 12.4766 6.68229 12.6458 6.76562 12.8359C6.85156 13.026 6.89453 13.2409 6.89453 13.4805C6.89453 13.7357 6.84505 13.9622 6.74609 14.1602C6.64714 14.3581 6.50521 14.526 6.32031 14.6641C6.13542 14.7995 5.91406 14.9023 5.65625 14.9727C5.39844 15.043 5.11068 15.0781 4.79297 15.0781C4.5013 15.0781 4.21354 15.0417 3.92969 14.9688C3.64844 14.8932 3.39323 14.7786 3.16406 14.625C2.9349 14.4688 2.7513 14.2695 2.61328 14.0273C2.47786 13.7826 2.41016 13.4922 2.41016 13.1562H3.78516C3.78516 13.3229 3.80729 13.4635 3.85156 13.5781C3.89583 13.6927 3.96094 13.7852 4.04688 13.8555C4.13281 13.9232 4.23828 13.9727 4.36328 14.0039C4.48828 14.0326 4.63151 14.0469 4.79297 14.0469C4.96745 14.0469 5.10807 14.0221 5.21484 13.9727C5.32161 13.9206 5.39974 13.8529 5.44922 13.7695C5.4987 13.6836 5.52344 13.5898 5.52344 13.4883ZM10.3555 9.3125V15H8.98438V9.3125H10.3555ZM12.0664 9.3125V10.3711H7.3125V9.3125H12.0664ZM17.3516 12.043V12.2734C17.3516 12.7083 17.2904 13.099 17.168 13.4453C17.0482 13.7891 16.8776 14.0833 16.6562 14.3281C16.4349 14.5703 16.1732 14.7565 15.8711 14.8867C15.569 15.0143 15.2357 15.0781 14.8711 15.0781C14.5039 15.0781 14.168 15.0143 13.8633 14.8867C13.5612 14.7565 13.2982 14.5703 13.0742 14.3281C12.8529 14.0833 12.681 13.7891 12.5586 13.4453C12.4388 13.099 12.3789 12.7083 12.3789 12.2734V12.043C12.3789 11.6081 12.4388 11.2174 12.5586 10.8711C12.681 10.5247 12.8516 10.2305 13.0703 9.98828C13.2917 9.74349 13.5534 9.55729 13.8555 9.42969C14.1602 9.29948 14.4961 9.23438 14.8633 9.23438C15.2279 9.23438 15.5612 9.29948 15.8633 9.42969C16.168 9.55729 16.431 9.74349 16.6523 9.98828C16.8737 10.2305 17.0456 10.5247 17.168 10.8711C17.2904 11.2174 17.3516 11.6081 17.3516 12.043ZM15.9609 12.2734V12.0352C15.9609 11.7539 15.9362 11.5065 15.8867 11.293C15.8398 11.0768 15.7695 10.8958 15.6758 10.75C15.582 10.6042 15.4661 10.4948 15.3281 10.4219C15.1927 10.3464 15.0378 10.3086 14.8633 10.3086C14.681 10.3086 14.5221 10.3464 14.3867 10.4219C14.2513 10.4948 14.138 10.6042 14.0469 10.75C13.9557 10.8958 13.8867 11.0768 13.8398 11.293C13.7956 11.5065 13.7734 11.7539 13.7734 12.0352V12.2734C13.7734 12.5521 13.7956 12.7995 13.8398 13.0156C13.8867 13.2292 13.9557 13.4102 14.0469 13.5586C14.1406 13.707 14.2552 13.819 14.3906 13.8945C14.5286 13.9701 14.6888 14.0078 14.8711 14.0078C15.0456 14.0078 15.2005 13.9701 15.3359 13.8945C15.4714 13.819 15.5846 13.707 15.6758 13.5586C15.7695 13.4102 15.8398 13.2292 15.8867 13.0156C15.9362 12.7995 15.9609 12.5521 15.9609 12.2734ZM20.332 13.0703H18.918V12.0117H20.332C20.5247 12.0117 20.681 11.9792 20.8008 11.9141C20.9206 11.849 21.0078 11.7591 21.0625 11.6445C21.1198 11.5273 21.1484 11.3958 21.1484 11.25C21.1484 11.0938 21.1198 10.9492 21.0625 10.8164C21.0078 10.6836 20.9206 10.5768 20.8008 10.4961C20.681 10.4128 20.5247 10.3711 20.332 10.3711H19.4336V15H18.0625V9.3125H20.332C20.7878 9.3125 21.1797 9.39583 21.5078 9.5625C21.8385 9.72917 22.0924 9.95833 22.2695 10.25C22.4466 10.5391 22.5352 10.8698 22.5352 11.2422C22.5352 11.6094 22.4466 11.9297 22.2695 12.2031C22.0924 12.4766 21.8385 12.6901 21.5078 12.8438C21.1797 12.9948 20.7878 13.0703 20.332 13.0703Z" fill="white"/>
</svg>
